<?xml version="1.0" encoding="utf-8"?>
<!-- Generator: Adobe Illustrator 24.3.0, SVG Export Plug-In . SVG Version: 6.00 Build 0)  -->
<svg width="50" height="50" version="1.1" id="Layer_1" xmlns="http://www.w3.org/2000/svg" xmlns:xlink="http://www.w3.org/1999/xlink" x="0px" y="0px"
	 viewBox="0 0 50 50" style="enable-background:new 0 0 50 50;" xml:space="preserve">
<style type="text/css">
	.st0{fill:#70E25E;}
	.st1{fill:#FFFFFF;}
</style>
<circle class="st0" cx="25" cy="25" r="25"/>
<g>
	<path class="st1" d="M23.8,40.2c-1.5,0-3-0.6-4.3-1.8c-0.3-0.3-0.8-0.5-1.2-0.5c-0.1,0.4-0.5,0.7-0.8,0.7h-4.6
		c-0.4,0-0.8-0.4-0.9-0.8L12,27c0-0.4,0.4-0.8,0.8-0.8h4.6c0.4,0,0.8,0.4,0.8,0.8c0.5,0,0.9-0.2,1.2-0.5c1.2-1.1,2.7-1.7,4.3-1.7
		h3.1v-2.1h-5.9c-0.4,0-0.9-0.4-0.9-0.9V10.6c0-0.4,0.4-0.9,0.9-0.9h16.2c0.4,0,0.9,0.4,0.9,0.9v11.3c0,0.4-0.4,0.9-0.9,0.9h-5.9
		v4.5h1.3c1.3,0,2.3,1,2.3,2.2c0,0.3-0.1,0.5-0.1,0.7c0.9,0.3,1.5,1.2,1.5,2.2c0,0.7-0.3,1.3-0.8,1.7c0.2,0.3,0.3,0.6,0.3,1.1
		c0,0.7-0.3,1.3-0.8,1.7c0.2,0.3,0.3,0.6,0.3,1.1c0,1.3-1,2.2-2.3,2.2H23.8z M29.2,37.5c-0.3,0-0.5,0.2-0.6,0.4l0,0.3
		c0.1,0.2,0.2,0.3,0.5,0.3h3.6c0.3,0,0.7-0.3,0.7-0.5c0-0.3-0.3-0.5-0.7-0.5H29.2z M18.4,36.2c0.8,0,1.6,0.4,2.4,1.1
		c0.7,0.7,2,1.2,3,1.2H27v-5.1c-0.4-0.4-0.6-1-0.6-1.5v-3.5c0-0.4,0.4-0.8,0.9-0.8c0.4,0,0.8,0.4,0.8,0.8v3.5c0,0.3,0.3,0.5,0.7,0.5
		c0.3,0,0.6-0.1,0.7-0.4l0-4.6c-0.1-0.4-0.6-0.8-1.2-0.8h-4.4c-1.1,0-2.3,0.5-3,1.2c-0.6,0.7-1.4,1-2.3,1.1V36.2z M16.5,36.8v-9
		h-2.8v9H16.5z M30,34.5c-0.4,0-0.7,0.3-0.7,0.5c0,0.3,0.3,0.6,0.7,0.6h3.3c0.4,0,0.7-0.3,0.7-0.6c0-0.3-0.3-0.5-0.7-0.5H30z
		 M33.9,32.8c0.4,0,0.6-0.3,0.6-0.5c0-0.2-0.2-0.5-0.6-0.5c0,0-0.1,0-0.1,0l-2.8,0v0.6c0,0-0.1,0.3-0.2,0.4H33.9z M32.5,30
		c0.4,0,0.7-0.3,0.7-0.5c0-0.4-0.4-0.5-0.7-0.5h-1.3V30H32.5z M28.7,24.8c0.2,0,0.5,0.1,0.7,0.2v-2.3h-0.7V24.8z M36.2,21v-9.5H21.8
		V21H36.2z"/>
	<path class="st1" d="M37.1,10c0.3,0,0.6,0.3,0.6,0.6v11.3c0,0.3-0.3,0.6-0.6,0.6h-6.2v4.9v0.1h1.6c1.2,0,2.1,0.9,2.1,2
		c0,0.3-0.1,0.6-0.2,0.9c0.9,0.2,1.6,1,1.6,2c0,0.7-0.3,1.3-0.9,1.7c0.3,0.3,0.4,0.7,0.4,1.1c0,0.7-0.3,1.3-0.9,1.7
		c0.3,0.3,0.4,0.7,0.4,1.1c0,1.1-0.9,2-2.1,2h-2.5h-0.7h-0.4h-1.5h-4c-1.5,0-3-0.7-4.1-1.7c-0.4-0.4-1-0.6-1.5-0.6h-0.1v0.1
		c0,0.3-0.3,0.6-0.6,0.6h-4.6c-0.3,0-0.6-0.3-0.7-0.6V27c0-0.3,0.3-0.6,0.6-0.6h4.6c0.3,0,0.6,0.3,0.6,0.6v0.2h0.1
		c0.6,0,1.1-0.2,1.5-0.6c1.1-1,2.6-1.6,4.1-1.6h3.4v-2.6h-6.2c-0.3,0-0.6-0.3-0.6-0.6V10.6c0-0.3,0.3-0.6,0.6-0.6H37.1 M21.5,21.2
		h15v-10h-15V21.2 M29.6,25.4v-2.9h-1.2V25C28.8,25,29.2,25.2,29.6,25.4 M18.2,28.5v-0.1h-0.1v8h0.1c0.9,0,1.7,0.4,2.4,1
		c0.8,0.8,2.1,1.3,3.2,1.3h3.4v-0.5c0-0.1,0-0.2,0-0.3s0-0.2,0-0.3v-4.4c-0.4-0.4-0.6-0.9-0.6-1.4v-3.5c0-0.3,0.3-0.6,0.6-0.6
		s0.6,0.3,0.6,0.6v3.5c0,0.4,0.4,0.8,0.9,0.8c0.4,0,0.8-0.2,0.9-0.6v-4.7c-0.2-0.6-0.8-1.1-1.5-1.1h-4.4c-1.1,0-2.4,0.5-3.2,1.3
		C19.9,28.2,19.1,28.5,18.2,28.5 M13.5,37.1h3.3v-9.5h-3.3V37.1 M30.9,30.3h1.6c0.5,0,0.9-0.4,0.9-0.8c0-0.5-0.4-0.8-0.9-0.8h-1.6
		V30.3 M30.4,33.1h2.9h0.6c0.5,0,0.9-0.4,0.9-0.8c0-0.4-0.3-0.7-0.8-0.7c-0.1,0-0.1,0-0.2,0h-1.4h-1.6v0.3c0,0.1,0,0.2,0,0.3
		c0,0.1,0,0.1,0,0.2C30.7,32.6,30.6,32.9,30.4,33.1 M30,35.9h2.7h0.6c0.5,0,0.9-0.4,0.9-0.8c0-0.4-0.4-0.8-0.9-0.8H30
		c-0.5,0-0.9,0.4-0.9,0.8C29.1,35.5,29.5,35.9,30,35.9 M29.2,38.8h0.4h0.7h2.5c0.4,0,0.9-0.4,0.9-0.8c0-0.4-0.4-0.8-0.9-0.8h-2.7
		h-0.9c-0.4,0-0.7,0.3-0.8,0.6v0.4C28.5,38.6,28.8,38.8,29.2,38.8 M37.1,9.5H20.9c-0.6,0-1.1,0.5-1.1,1.1v11.2
		c0,0.6,0.5,1.1,1.1,1.1h5.7v1.6h-2.9c-1.6,0-3.2,0.6-4.4,1.7c-0.2,0.2-0.5,0.4-0.8,0.4c-0.2-0.4-0.6-0.8-1-0.8h-4.6
		c-0.6,0-1.1,0.5-1.1,1.1v10.8v0.1l0,0.1c0.2,0.5,0.6,0.9,1.2,0.9h4.6c0.4,0,0.8-0.3,1-0.7c0.3,0.1,0.6,0.2,0.8,0.4
		c1.3,1.2,2.9,1.8,4.5,1.8h4h1.5h0.4h0.7h2.5c1.5,0,2.6-1.1,2.6-2.5c0-0.4-0.1-0.7-0.2-1c0.5-0.5,0.7-1.1,0.7-1.8
		c0-0.4-0.1-0.7-0.2-1c0.5-0.5,0.7-1.1,0.7-1.8c0-1-0.6-1.9-1.5-2.3c0-0.2,0.1-0.4,0.1-0.6c0-1.4-1.1-2.5-2.6-2.5h-1.1v-4h5.7
		c0.6,0,1.1-0.5,1.1-1.1V10.6C38.2,10,37.7,9.5,37.1,9.5L37.1,9.5z M22,11.7h14v9H22V11.7L22,11.7z M28.9,23h0.2v1.6
		c-0.1,0-0.1,0-0.2-0.1V23L28.9,23z M18.6,29c0.9-0.1,1.7-0.5,2.3-1.2c0.7-0.7,1.8-1.1,2.8-1.1h4.4c0.5,0,0.9,0.3,1,0.7v4.5
		c-0.1,0.1-0.2,0.2-0.4,0.2c-0.2,0-0.4-0.2-0.4-0.3v-3.5c0-0.6-0.5-1.1-1.1-1.1s-1.1,0.5-1.1,1.1v3.5c0,0.6,0.2,1.1,0.6,1.6v4.2v0.3
		v0.3h-2.9c-1,0-2.2-0.5-2.8-1.2c-0.8-0.7-1.6-1-2.4-1.1V29L18.6,29z M14,28.1h2.3v8.5H14V28.1L14,28.1z M31.4,29.2h1.1
		c0.1,0,0.4,0,0.4,0.3c0,0.1-0.2,0.3-0.4,0.3h-1.1V29.2L31.4,29.2z M31.3,32.1h1.1h1.4h0l0,0c0,0,0.1,0,0.1,0c0,0,0,0,0,0
		c0.1,0,0.2,0,0.3,0.1c0,0,0.1,0.1,0.1,0.1c0,0.1-0.2,0.3-0.4,0.3h-0.6h-2l0-0.1v-0.1v-0.2V32.1L31.3,32.1z M30,35.4
		c-0.2,0-0.4-0.2-0.4-0.3s0.2-0.3,0.4-0.3h3.3c0.2,0,0.4,0.2,0.4,0.3s-0.2,0.3-0.4,0.3h-0.6H30L30,35.4z M28.9,37.9
		c0.1-0.1,0.2-0.2,0.3-0.2h0.9h2.7c0.2,0,0.4,0.2,0.4,0.3c0,0.1-0.2,0.3-0.4,0.3h-2.5h-0.7h-0.4c-0.2,0-0.3-0.1-0.3-0.2V37.9
		L28.9,37.9z"/>
</g>
</svg>
