<?xml version="1.0" encoding="utf-8"?>
<!-- Generator: Adobe Illustrator 24.3.0, SVG Export Plug-In . SVG Version: 6.00 Build 0)  -->
<svg width="386" height="437" version="1.1" id="Layer_1" xmlns="http://www.w3.org/2000/svg" xmlns:xlink="http://www.w3.org/1999/xlink" x="0px" y="0px"
	 viewBox="0 0 397.7 450" style="enable-background:new 0 0 397.7 450;" xml:space="preserve">
<style type="text/css">
	.st0{fill:#EBFFFA;}
	.st1{fill:#00C299;}
	.st2{fill:#88E2CD;}
	.st3{fill:#FFFFFF;}
	.st4{fill:#FFC5F1;}
	.st5{fill:#FFCBC7;}
	.st6{fill:#263182;}
	.st7{fill:#AABCFA;}
	.st8{fill:#A0B4FA;}
	.st9{fill:#85A1FF;}
	.st10{fill:#6986E6;}
	.st11{fill:#FABAB4;}
	.st12{fill:#D8DAEB;}
	.st13{fill:#CFD2EB;}
	.st14{fill:#4E6FD9;}
	.st15{fill:#BDC3FF;}
	.st16{fill:#505FEB;}
	.st17{fill:#A8AEF0;}
	.st18{fill:#E6E7F5;}
	.st19{fill:#4A59DB;}
	.st20{fill:#F9CBCB;}
	.st21{fill:#3E3279;}
	.st22{fill:#FE81DF;}
	.st23{fill:#F9C2C2;}
	.st24{fill:#3F4883;}
	.st25{fill:#F1CCCD;}
	.st26{fill:#303B82;}
	.st27{fill:#2C3678;}
	.st28{fill:#414C96;}
	.st29{fill:#FFCC7D;}
	.st30{fill:#F0B4B4;}
	.st31{fill:#FFBA4F;}
	.st32{fill:#008E00;}
	.st33{fill:#97FF97;}
	.st34{fill:#FF91DA;}
	.st35{fill:#FFB86B;}
	.st36{fill:#736FC7;}
</style>
<ellipse class="st0" cx="189.3" cy="422.3" rx="192.2" ry="25.2"/>
<path class="st1" d="M359.7,272.4c-0.1,0-0.1,0-0.2-0.1c-0.2-0.1-0.3-0.4-0.1-0.6c0,0,0.7-1.1,1.6-3.1c0.1-0.2,0.3-0.3,0.5-0.2
	c0.2,0.1,0.3,0.3,0.2,0.5c-1,2-1.6,3.1-1.7,3.1C359.9,272.4,359.8,272.4,359.7,272.4L359.7,272.4z M43.8,82.7
	c-1.6,1.8-3.2,3.6-4.6,5.5c-0.1,0.2-0.1,0.4,0.1,0.6c0.1,0.1,0.2,0.1,0.2,0.1c0.1,0,0.2-0.1,0.3-0.2c1.4-1.8,2.9-3.6,4.6-5.4
	c0.2-0.2,0.1-0.4,0-0.6C44.2,82.5,44,82.5,43.8,82.7z M49.1,78.4c0.1,0,0.2,0,0.3-0.1c1.7-1.6,3.5-3.1,5.4-4.6
	c0.2-0.1,0.2-0.4,0.1-0.6c-0.1-0.2-0.4-0.2-0.6-0.1c-1.9,1.5-3.7,3.1-5.4,4.7c-0.2,0.2-0.2,0.4,0,0.6C48.9,78.3,49,78.4,49.1,78.4z
	 M27.7,114.4C27.7,114.4,27.8,114.4,27.7,114.4c0.3,0,0.4-0.1,0.5-0.3c0.4-2.3,0.9-4.6,1.6-6.8c0.1-0.2,0-0.4-0.3-0.5
	c-0.2-0.1-0.4,0-0.5,0.3c-0.7,2.3-1.3,4.7-1.7,7C27.3,114.1,27.5,114.3,27.7,114.4z M27.2,120.6c-0.2,0-0.4,0.2-0.4,0.4
	c0,2.4,0.2,4.8,0.6,7.1c0,0.2,0.2,0.3,0.4,0.3h0.1c0.2,0,0.4-0.3,0.3-0.5c-0.4-2.3-0.6-4.6-0.6-7C27.6,120.8,27.4,120.6,27.2,120.6z
	 M35.7,93.9c-0.2-0.1-0.4-0.1-0.6,0.1c-1.3,2.1-2.4,4.2-3.4,6.3c-0.1,0.2,0,0.4,0.2,0.5h0.2c0.2,0,0.3-0.1,0.4-0.2
	c1-2.1,2.1-4.2,3.4-6.2C35.9,94.2,35.9,94,35.7,93.9z M30.1,134.8c-0.1-0.2-0.3-0.3-0.5-0.2s-0.3,0.3-0.2,0.5
	c0.8,2.2,1.9,4.4,3.1,6.5c0.1,0.1,0.2,0.2,0.3,0.2s0.1,0,0.2-0.1c0.2-0.1,0.3-0.4,0.1-0.6C32,139.1,30.9,137,30.1,134.8L30.1,134.8z
	 M37.4,146.8c-0.2-0.2-0.4-0.2-0.6,0c-0.2,0.2-0.2,0.4,0,0.6c1.5,1.6,3.4,3.1,5.5,4.5c0.1,0,0.1,0.1,0.2,0.1s0.3-0.1,0.3-0.2
	c0.1-0.2,0.1-0.4-0.1-0.6C40.6,149.8,38.8,148.3,37.4,146.8L37.4,146.8z M125.5,42.3C125.5,42.3,125.6,42.3,125.5,42.3
	c2.4-0.5,4.7-1,7-1.5c0.2,0,0.4-0.3,0.3-0.5c0-0.2-0.3-0.4-0.5-0.3c-2.3,0.5-4.7,1-7,1.5c-0.2,0.1-0.4,0.3-0.3,0.5
	C125.2,42.2,125.3,42.3,125.5,42.3z M167.6,35.6c2.4-0.2,4.8-0.4,7.1-0.6c0.2,0,0.4-0.2,0.4-0.4s-0.2-0.4-0.4-0.4
	c-2.4,0.2-4.8,0.4-7.1,0.6c-0.2,0-0.4,0.2-0.4,0.4S167.4,35.6,167.6,35.6z M181.8,34.4c2.4-0.2,4.8-0.3,7.1-0.4
	c0.2,0,0.4-0.2,0.4-0.4s-0.2-0.4-0.4-0.4c-2.4,0.1-4.8,0.2-7.1,0.4c-0.2,0-0.4,0.2-0.4,0.4S181.6,34.4,181.8,34.4z M153.5,37.2
	c2.4-0.3,4.7-0.6,7.1-0.9c0.2,0,0.4-0.2,0.4-0.5c0-0.2-0.2-0.4-0.5-0.4c-2.4,0.3-4.8,0.6-7.1,0.9c-0.2,0-0.4,0.2-0.3,0.5
	C153.1,37.1,153.3,37.2,153.5,37.2L153.5,37.2z M139.4,39.5C139.5,39.5,139.5,39.5,139.4,39.5c2.4-0.4,4.7-0.8,7.1-1.2
	c0.2,0,0.4-0.2,0.3-0.5c0-0.2-0.2-0.4-0.5-0.3c-2.4,0.4-4.7,0.8-7,1.2c-0.2,0-0.4,0.3-0.3,0.5C139.1,39.3,139.2,39.5,139.4,39.5z
	 M98.2,50.3L98.2,50.3c2.3-0.8,4.5-1.6,6.8-2.3c0.2-0.1,0.3-0.3,0.3-0.5c-0.1-0.2-0.3-0.3-0.5-0.3c-2.3,0.7-4.5,1.5-6.7,2.3
	c-0.2,0.1-0.3,0.3-0.2,0.5C97.9,50.2,98,50.3,98.2,50.3z M111.7,45.9L111.7,45.9c2.3-0.7,4.6-1.3,6.9-1.9c0.2-0.1,0.3-0.3,0.3-0.5
	c-0.1-0.2-0.3-0.3-0.5-0.3c-2.3,0.6-4.6,1.2-6.9,1.9c-0.2,0.1-0.3,0.3-0.3,0.5C111.4,45.8,111.6,45.9,111.7,45.9z M91.9,52.2
	c-0.1-0.2-0.3-0.3-0.5-0.2c-2.2,0.9-4.4,1.8-6.6,2.8c-0.2,0.1-0.3,0.3-0.2,0.5c0.1,0.2,0.2,0.2,0.4,0.2h0.2c2.1-0.9,4.3-1.9,6.5-2.8
	C91.9,52.7,92,52.5,91.9,52.2z M356.4,203.4c-0.2-0.1-0.4-0.1-0.6,0.1c-0.1,0.2-0.1,0.4,0.1,0.6c1.9,1.5,3.6,3.1,5.1,4.8
	c0.1,0.1,0.2,0.1,0.3,0.1c0.1,0,0.2,0,0.3-0.1c0.2-0.1,0.2-0.4,0-0.6C360.1,206.5,358.3,204.9,356.4,203.4L356.4,203.4z
	 M366.8,255.4c-0.2-0.1-0.4,0-0.5,0.3c-0.7,2.2-1.5,4.4-2.4,6.7c-0.1,0.2,0,0.4,0.2,0.5h0.2c0.2,0,0.3-0.1,0.4-0.3
	c0.9-2.2,1.7-4.5,2.5-6.7C367.2,255.7,367,255.5,366.8,255.4L366.8,255.4z M350.4,199.4c-2-1.1-4.2-2.2-6.4-3.1
	c-0.2-0.1-0.4,0-0.5,0.2s0,0.4,0.2,0.5c2.3,0.9,4.4,2,6.4,3.1c0.1,0,0.1,0.1,0.2,0.1s0.3-0.1,0.4-0.2
	C350.7,199.7,350.6,199.5,350.4,199.4L350.4,199.4z M368.5,221.2c0.2-0.1,0.3-0.3,0.3-0.5c-0.8-2.3-1.7-4.5-2.9-6.6
	c-0.1-0.2-0.4-0.3-0.6-0.2s-0.3,0.4-0.2,0.6c1.1,2,2.1,4.2,2.9,6.4c0.1,0.2,0.2,0.3,0.4,0.3H368.5L368.5,221.2z M370.3,227.7
	c0-0.2-0.2-0.4-0.5-0.3c-0.2,0-0.4,0.2-0.3,0.5c0.3,2.1,0.5,4.4,0.5,6.7v0.4c0,0.2,0.2,0.4,0.4,0.4s0.4-0.2,0.4-0.4v-0.4
	C370.8,232.1,370.7,229.9,370.3,227.7z M55.4,157.4c-2.3-0.9-4.5-1.8-6.5-2.8c-0.2-0.1-0.4,0-0.5,0.2s0,0.4,0.2,0.5
	c2,1,4.2,1.9,6.6,2.8h0.1c0.2,0,0.3-0.1,0.4-0.3C55.7,157.8,55.6,157.5,55.4,157.4z M370,241.5c-0.2,0-0.4,0.1-0.5,0.4
	c-0.3,2.3-0.7,4.6-1.3,7c-0.1,0.2,0.1,0.4,0.3,0.5h0.1c0.2,0,0.4-0.1,0.4-0.3c0.6-2.4,1-4.8,1.3-7
	C370.3,241.8,370.2,241.6,370,241.5L370,241.5z M337.3,193.9c-1-0.3-2-0.6-3-0.8c-1.3-0.3-2.6-0.7-3.9-1c-0.2-0.1-0.4,0.1-0.5,0.3
	s0.1,0.4,0.3,0.5c1.3,0.3,2.6,0.7,3.9,1c1,0.3,2,0.5,3,0.8h0.1c0.2,0,0.3-0.1,0.4-0.3C337.6,194.2,337.5,193.9,337.3,193.9z
	 M323.4,190.4c-2.3-0.5-4.6-1-7-1.5c-0.2,0-0.4,0.1-0.5,0.3c0,0.2,0.1,0.4,0.3,0.5c2.4,0.5,4.7,1,7,1.5h0.1c0.2,0,0.4-0.1,0.4-0.3
	C323.8,190.7,323.6,190.5,323.4,190.4z M68.9,161.6c-2.4-0.6-4.7-1.2-6.8-1.9c-0.2-0.1-0.4,0.1-0.5,0.3s0.1,0.4,0.3,0.5
	c2.2,0.7,4.5,1.3,6.9,1.9h0.1c0.2,0,0.3-0.1,0.4-0.3C69.3,161.9,69.1,161.6,68.9,161.6z M66.5,64.9c-0.1-0.2-0.4-0.2-0.6-0.1
	c-2,1.3-4,2.6-5.9,3.9c-0.2,0.1-0.2,0.4-0.1,0.6c0.1,0.1,0.2,0.2,0.3,0.2c0.1,0,0.2,0,0.2-0.1c1.9-1.3,3.9-2.6,5.9-3.9
	C66.5,65.3,66.6,65.1,66.5,64.9z M78.9,58c-0.1-0.2-0.3-0.3-0.5-0.2c-2.2,1.1-4.3,2.2-6.3,3.3c-0.2,0.1-0.3,0.4-0.2,0.6
	c0.1,0.1,0.2,0.2,0.4,0.2c0.1,0,0.1,0,0.2-0.1c2-1.1,4.1-2.2,6.3-3.3C78.9,58.5,79,58.2,78.9,58z M309.4,187.6
	c-2.3-0.4-4.6-0.8-7-1.2c-0.1,0-0.3,0-0.4,0.1c0,0.1,0,0.3-0.1,0.4c0.1,0.1,0.2,0.2,0.3,0.2c2.4,0.4,4.7,0.8,7,1.2h0.1
	c0.2,0,0.4-0.1,0.4-0.3C309.8,187.8,309.7,187.6,309.4,187.6z M82.8,164.6c-2.4-0.4-4.8-0.9-7-1.4c-0.2,0-0.4,0.1-0.5,0.3
	c0,0.2,0.1,0.4,0.3,0.5c2.2,0.5,4.6,0.9,7,1.4h0.1c0.2,0,0.4-0.1,0.4-0.3C83.2,164.8,83,164.6,82.8,164.6z M196.1,33.7
	c-0.2,0-0.4-0.2-0.4-0.4s0.2-0.4,0.4-0.4c1.2,0,2.3-0.1,3.5-0.1c0.2,0,0.4,0.2,0.4,0.4s-0.2,0.4-0.4,0.4
	C198.4,33.6,197.3,33.7,196.1,33.7z"/>
<path class="st2" d="M295.2,162.1c1.2,0.2,2.5-0.6,3.1-1.6c0.7-1,0.8-2.4,0.6-3.6c-0.2-1.2-0.7-2.4-1.3-3.5c-1-1.8-2.2-3.5-3.9-4.7
	c3-0.4,6-0.6,9-0.6h0.8c-0.2,2.1-0.3,4.3-0.5,6.4c-0.1,1.4-0.2,2.9,0.2,4.3s1.5,2.6,2.9,2.8c1.2,0.2,2.5-0.6,3.1-1.6
	c0.7-1,0.8-2.4,0.6-3.6c-0.2-1.2-0.7-2.4-1.3-3.5c-1-1.9-2.3-3.6-4.1-4.8c3.3,0.1,6.7,0.5,9.9,1.2c-0.1,2.2-0.2,4.3-0.3,6.5
	c-0.1,1.4-0.1,2.9,0.4,4.3s1.6,2.6,3.1,2.7c1.2,0.1,2.4-0.7,3.1-1.7c0.6-1.1,0.7-2.4,0.5-3.6c-0.2-1.2-0.8-2.3-1.5-3.4
	c-1-1.7-2.3-3.3-3.9-4.4c2.4,0.6,4.7,1.2,6.9,2.1c0.7,0.2,1.3,0.5,2,0.8c0,2.2,0,4.5-0.1,6.7c0,1.4,0,2.9,0.5,4.2s1.7,2.5,3.1,2.6
	c1.2,0.1,2.4-0.7,3-1.8s0.6-2.4,0.4-3.6c-0.3-1.2-0.9-2.3-1.6-3.4c-1-1.5-2.1-2.9-3.5-4c2.2,1,4.4,2.2,6.4,3.4c1,1.9,2,3.9,3.1,5.8
	c0.7,1.3,1.4,2.6,2.5,3.5s2.7,1.4,4,0.8c1.1-0.5,1.8-1.8,1.8-3s-0.6-2.4-1.4-3.3c-0.8-0.9-1.9-1.6-3-2.2c-2-1.1-4.2-1.9-6.5-1.9
	c-2.2-1.4-4.5-2.6-6.8-3.6c1.8,0.1,3.7-0.2,5.5-0.8c1.2-0.4,2.3-0.9,3.3-1.6c1-0.7,1.8-1.8,2-3s-0.2-2.6-1.2-3.3
	c-1.2-0.9-2.8-0.7-4.1,0c-1.3,0.7-2.2,1.8-3.1,3c-1.4,1.7-2.7,3.4-4.1,5.1c-2.9-1.2-5.9-2.2-9-2.9c1.9-0.3,3.8-1.1,5.4-2.2
	c1-0.7,2.1-1.4,2.8-2.4c0.8-1,1.3-2.2,1.2-3.4c-0.1-1.2-0.8-2.5-2-2.9c-1.3-0.5-2.9,0-3.9,1s-1.7,2.3-2.2,3.6l-2.7,6
	c-0.1,0-0.2,0-0.3-0.1c-3.2-0.7-6.5-1-9.7-1.2c2.1-0.6,3.9-1.9,5.5-3.5c0.9-0.9,1.7-1.8,2.3-2.9c0.6-1.1,0.8-2.4,0.5-3.6
	c-0.3-1.2-1.3-2.2-2.5-2.5c-1.4-0.3-2.8,0.6-3.6,1.8c-0.8,1.2-1.1,2.6-1.5,4l-1.5,6.6h-0.1v-0.1v0.1c-3.2-0.1-6.4,0.1-9.5,0.5
	c1.5-1.2,2.7-2.9,3.6-4.7c0.6-1.1,1.1-2.3,1.3-3.5c0.2-1.2,0-2.6-0.7-3.6c-0.7-1.1-2-1.8-3.2-1.6c-1.4,0.2-2.5,1.5-2.9,2.9
	s-0.3,2.9-0.1,4.3c0.2,2.1,0.4,4.1,0.6,6.2v0.2c-3.5,0.6-6.9,1.4-10.1,2.6c-0.3,0.1-0.2,0.7,0.1,0.6c3.2-1.2,6.6-2,10-2.6
	c-0.2,2-0.3,4.1-0.5,6.1c-0.1,1.4-0.2,2.9,0.2,4.3C292.6,160.7,293.7,162,295.2,162.1L295.2,162.1z M65.3,167.4
	c-6.1-2.8-12.3-4.5-18.4-5.4h-0.3c-2-0.3-4-0.5-5.9-0.6c1.1,2.9,0.6,5.5-0.9,7.9c0.2-3.7-1.6-6.3-5-8c-0.1-0.1-0.3-0.1-0.5-0.1
	c-4.9,0-9.3,0.4-13.2,0.8h-0.3c-6.6,0.9-11.2,2.2-12.2,2.5c-0.1,0-0.2,0.1-0.2,0.1s0,0.1,0.1,0.2c0.6,1.4,4.6,10.2,12.2,19.7
	c0.1,0.1,0.1,0.2,0.2,0.2c2.1,2.6,4.5,5.3,7.1,8c2.9,2.2,5.9,1.6,7.6,0.6c-0.9,1.5-2.2,2.6-4,2.7c4.5,3.9,9.7,7.5,15.6,10.3
	c0.2,0.1,0.3,0.2,0.5,0.2l0.3,0.2c3.1,1.4,6.3,2.5,9.4,3.3c0.1,0,0.2,0.1,0.3,0.1c22,5.9,43.8-0.1,46.1-0.8c0.1,0,0.2-0.1,0.2-0.1
	s0-0.1-0.1-0.2c-0.5-1.2-3.5-7.8-9.1-15.7l-0.2-0.2c-1.8-2.5-3.8-5.1-6.1-7.7c-0.1-0.1-0.2-0.3-0.3-0.4c-3.1-3.4-6.6-6.9-10.6-10
	c-0.8,1.6-1.5,2.9-1.5,2.9l-2.3-5.7C71.1,170.4,68.3,168.8,65.3,167.4z M14.6,171.6c-0.2-0.4,0-0.9,0.4-1.1c0.4-0.2,0.9,0,1.1,0.4
	c0.2,0.4,0,0.9-0.4,1.1C15.3,172.1,14.8,172,14.6,171.6z M16.5,173.6c0.3-0.6,1-0.9,1.7-0.6c0.6,0.3,0.9,1,0.6,1.7
	c-0.3,0.6-1.1,0.9-1.7,0.6C16.5,174.9,16.2,174.2,16.5,173.6z M38.7,192.2c0.2-0.4,0.7-0.6,1.2-0.4c0.4,0.2,0.6,0.7,0.4,1.1
	c-0.2,0.4-0.7,0.6-1.1,0.4C38.7,193.2,38.5,192.6,38.7,192.2z M40.3,196.1c0.4-0.8,1.3-1.1,2-0.7c0.8,0.4,1.1,1.3,0.7,2
	c-0.3,0.7-1.2,1.1-2,0.7C40.3,197.7,39.9,196.8,40.3,196.1z M42.6,163c0.1-0.2,0.3-0.3,0.5-0.2s0.3,0.3,0.2,0.6
	c-0.1,0.2-0.4,0.3-0.6,0.2C42.6,163.4,42.5,163.2,42.6,163z M33.4,164.5c0.2-0.5,0.8-0.7,1.3-0.5s0.7,0.8,0.5,1.3s-0.8,0.7-1.3,0.5
	S33.2,165,33.4,164.5z M36,167.1c0.1-0.2,0.3-0.3,0.5-0.2s0.3,0.4,0.2,0.6c-0.1,0.2-0.4,0.3-0.6,0.2C36,167.5,35.9,167.3,36,167.1z"
	/>
<path class="st3" d="M50.3,173.1l4.1-5.3l0.2,0.2l-4.2,5.5l3.7,12.2l13.5,6.3l-4-13.8l0.3-0.1l4.1,14.1L91.3,203l-3.1-18.1
	c0.1,0.1,0.2,0.3,0.3,0.4l2,11.5l4.1-3.8l0.2,0.2l-4.3,3.9l1,6l12.5,5.8l-0.1,0.3l-18.2-8.5l-8.1,3.3l-0.1-0.3l7.8-3.2l-12.6-5.9
	l-10.3,4.9c-1.1,2.4-3.5,7.4-4.9,10.4c-0.1,0-0.2,0-0.3-0.1c1.5-3.1,4-8.5,4.8-10.1l-14.2,6.7l-0.3-0.2l24.9-11.8l-25.1-11.7l-7,4.9
	l-0.1-0.2l6.9-4.8l-10.6-5l-15.7,6.9c-0.1-0.1-0.1-0.2-0.2-0.2l7.8-3.4c-3-1.1-7.2-2.8-7.5-2.8V178h-0.1l0.1-0.1
	c0.1,0,0.2-0.1,7.9,2.9l7.4-3.2L8.5,164.7c-0.1-0.1-0.1-0.2-0.1-0.2s0.1,0,0.2-0.1l21.7,10.2L20.9,162h0.3l9.8,12.9l22.7,10.6
	L46.6,162h0.3C46.9,162,50.3,173.1,50.3,173.1z"/>
<path class="st2" d="M316.1,85.1c3.8-5.5,6.6-11.3,8.6-17.1c0-0.1,0.1-0.2,0.1-0.3c0.6-1.9,1.2-3.8,1.7-5.7
	c-3.1,0.6-5.5-0.4-7.6-2.2c3.6,0.8,6.5-0.4,8.7-3.5c0.1-0.1,0.2-0.3,0.2-0.5c0.9-4.8,1.3-9.3,1.5-13.1v-0.3
	c0.3-6.7-0.2-11.4-0.3-12.4v-0.2h-0.2c-1.5,0.4-10.8,2.7-21.6,8.5c-0.1,0.1-0.2,0.1-0.3,0.1c-3,1.6-6,3.5-9.1,5.6
	c-2.7,2.5-2.6,5.5-1.9,7.3c-1.4-1.2-2.2-2.6-1.9-4.4c-4.7,3.8-9.1,8.2-12.9,13.6c-0.1,0.1-0.2,0.3-0.3,0.5l-0.2,0.3
	c-1.9,2.8-3.6,5.7-4.9,8.7c0,0.1-0.1,0.2-0.1,0.3c-9.6,20.7-7.5,43.1-7.3,45.5v0.2h0.2c1.3-0.3,8.3-2.1,17-6.2
	c0.1,0,0.2-0.1,0.3-0.1c2.8-1.3,5.7-2.9,8.6-4.7c0.2-0.1,0.3-0.2,0.5-0.3c3.9-2.4,7.9-5.3,11.7-8.7c-1.5-1.1-2.6-2-2.6-2l6-1.3
	C312.2,90.3,314.3,87.8,316.1,85.1L316.1,85.1z M320.9,34.5c0.4-0.1,0.9,0.2,1,0.6c0.1,0.4-0.1,0.9-0.6,1c-0.4,0.1-0.9-0.1-1-0.6
	C320.2,35.1,320.5,34.6,320.9,34.5z M318.6,36c0.6,0.4,0.7,1.2,0.3,1.7c-0.4,0.6-1.2,0.7-1.7,0.3c-0.6-0.4-0.7-1.2-0.3-1.8
	C317.3,35.7,318.1,35.6,318.6,36z M296.4,54.6c0.4,0.3,0.5,0.8,0.2,1.2s-0.8,0.5-1.2,0.2c-0.4-0.3-0.5-0.8-0.2-1.2
	C295.5,54.5,296,54.3,296.4,54.6z M292.3,55.5c0.7,0.5,0.8,1.4,0.4,2.1c-0.5,0.7-1.4,0.8-2.1,0.4c-0.7-0.5-0.8-1.4-0.4-2.1
	C290.7,55.2,291.6,55,292.3,55.5z M324.5,63.5c0.2,0.1,0.2,0.4,0.1,0.6s-0.4,0.2-0.6,0.1s-0.2-0.4-0.1-0.6
	C324,63.4,324.3,63.4,324.5,63.5z M324.6,54.2c0.4,0.3,0.5,0.9,0.2,1.3s-0.9,0.5-1.3,0.2s-0.5-0.9-0.2-1.3S324.2,53.9,324.6,54.2z
	 M321.6,56.4c0.2,0.1,0.2,0.4,0.1,0.6c-0.1,0.2-0.4,0.2-0.6,0.1c-0.2-0.1-0.2-0.4-0.1-0.6C321.2,56.3,321.4,56.2,321.6,56.4z"/>
<path class="st3" d="M313.2,69.3l4.5,4.9l-0.2,0.2l-4.7-5.1l-12.7,1.5L291.6,83l14.3-1.5v0.3l-14.6,1.6l-14.9,21.1l18.3,0.1
	c-0.2,0.1-0.3,0.2-0.5,0.3l-11.6-0.1l3,4.7c-0.1,0-0.2,0.1-0.3,0.1l-3.1-4.9h-6.1l-7.9,11.3l-0.2-0.2l11.5-16.4l-1.8-8.5l0.3-0.1
	l1.8,8.3l8-11.3l-3-11c-2.2-1.5-6.7-4.7-9.4-6.6c0-0.1,0.1-0.2,0.1-0.3c2.8,2,7.7,5.4,9.1,6.4l-4.2-15.1l0.2-0.3l7.3,26.5l15.9-22.6
	l-3.6-7.8l0.2-0.1l3.5,7.6l6.7-9.6l-4-16.6c0.1-0.1,0.2-0.1,0.3-0.1l2,8.3c1.6-2.7,4-6.7,4.1-6.9h0.1v-0.1l0.1,0.1
	c0,0.1,0.1,0.2-4.3,7.3l1.9,7.8l17.6-25h0.2v0.2l-13.8,19.6l14.1-7.2v0.3l-14,7.4l-14.4,20.5l24.4-2.9c0,0.1-0.1,0.2-0.1,0.3
	L313.2,69.3L313.2,69.3z"/>
<path class="st4" d="M87.9,131.9c-4-5.3-8.8-9.7-13.7-13.3c-0.1-0.1-0.2-0.1-0.3-0.2c-1.6-1.2-3.3-2.3-4.9-3.3
	c-0.4,3.1-2,5.1-4.4,6.5c1.9-3.2,1.6-6.3-0.7-9.4c-0.1-0.1-0.2-0.2-0.4-0.3c-4.3-2.3-8.4-4-12.1-5.4c-0.1,0-0.2-0.1-0.3-0.1
	c-6.3-2.3-10.9-3.3-11.9-3.5H39v0.2c-0.1,1.5-0.7,11.1,1.6,23.1c0,0.1,0,0.2,0.1,0.3c0.6,3.3,1.5,6.8,2.6,10.4
	c1.6,3.3,4.4,4.1,6.4,4.1c-1.6,0.9-3.1,1.3-4.8,0.5c2.2,5.6,5.1,11.2,9,16.4c0.1,0.1,0.2,0.3,0.3,0.4l0.2,0.3
	c2.1,2.7,4.4,5.1,6.8,7.3l0.2,0.2c16.8,15.4,38.8,20.2,41.1,20.7h0.2v-0.2c0.1-1.3,0.5-8.5-0.8-18.1v-0.3c-0.4-3-1-6.3-1.8-9.6
	c0-0.2-0.1-0.3-0.1-0.5c-1.1-4.5-2.6-9.1-4.7-13.8c-1.5,1.1-2.7,1.9-2.7,1.9l0.6-6.1C91.6,137.3,89.9,134.5,87.9,131.9L87.9,131.9z
	 M41.1,112c0-0.4,0.4-0.8,0.8-0.8s0.8,0.4,0.7,0.8c0,0.4-0.4,0.8-0.8,0.7C41.4,112.8,41.1,112.4,41.1,112z M41.9,114.6
	c0.6-0.4,1.3-0.3,1.7,0.2c0.4,0.6,0.3,1.3-0.2,1.8c-0.6,0.4-1.4,0.3-1.8-0.2C41.2,115.8,41.3,115,41.9,114.6z M52.8,141.5
	c0.4-0.3,0.9-0.2,1.2,0.2s0.2,0.9-0.2,1.2s-0.9,0.2-1.2-0.2C52.4,142.3,52.5,141.8,52.8,141.5z M52.4,145.6c0.7-0.5,1.6-0.4,2.1,0.3
	s0.4,1.6-0.3,2.1s-1.6,0.4-2.1-0.3C51.6,147.1,51.8,146.1,52.4,145.6z M69.8,117.4c0.2-0.1,0.4-0.1,0.6,0.1c0.1,0.2,0.1,0.4-0.1,0.6
	c-0.2,0.1-0.4,0.1-0.6-0.1C69.6,117.8,69.6,117.5,69.8,117.4z M61,114.4c0.4-0.3,1-0.2,1.3,0.2c0.3,0.4,0.2,1-0.2,1.3
	c-0.4,0.3-1,0.2-1.3-0.2C60.5,115.4,60.6,114.8,61,114.4z M62.2,117.9c0.2-0.1,0.4-0.1,0.6,0.1s0.1,0.5-0.1,0.6s-0.5,0.1-0.6-0.1
	C61.9,118.3,62,118.1,62.2,117.9z"/>
<path class="st3" d="M71.9,129.9l6.1-2.8l0.1,0.3l-6.3,2.9l-2.4,12.5l9,11.9l2.9-14.1h0.3L78.7,155l15.6,20.6l5.7-17.4
	c0,0.2,0.1,0.3,0.1,0.5l-3.6,11.1l5.4-1.4v0.3l-5.6,1.5l-1.9,5.8l8.3,11l-0.2,0.2l-12.1-16l-8.7-0.8v-0.3l8.4,0.8l-8.4-11l-11.4-0.5
	c-2.1,1.6-6.5,4.9-9.1,6.9l-0.2-0.2c2.8-2.1,7.5-5.7,8.9-6.7l-15.7-0.6l-0.2-0.3l27.5,1.1l-16.7-22l-8.5,1.1v-0.3l8.3-1l-7.1-9.3
	l-17.1-1.2c0-0.1,0-0.2-0.1-0.3l8.5,0.6c-2.1-2.4-5.1-5.8-5.4-6l0.1-0.1l-0.1-0.1l0.1-0.1c0.1,0,0.2,0,5.7,6.3l8,0.6l-18.5-24.3
	v-0.2h0.2L53.7,122l-2.6-15.6c0.1,0,0.2,0.1,0.3,0.1l2.6,16l15.2,20l4.7-24.1c0.1,0.1,0.2,0.1,0.3,0.2L71.9,129.9z"/>
<path class="st4" d="M328.3,132.5c5.8-3.2,10.9-7.3,15.2-11.7l0.2-0.2c1.4-1.4,2.7-2.9,4-4.4c-3-0.8-4.8-2.7-5.8-5.3
	c2.9,2.3,6,2.4,9.4,0.6c0.1-0.1,0.3-0.2,0.4-0.3c2.9-3.9,5.2-7.8,7-11.2c0-0.1,0.1-0.2,0.1-0.3c3.2-5.9,4.8-10.4,5.2-11.3
	c0-0.1,0.1-0.2,0.1-0.2h-0.2c-1.5-0.3-10.9-2.2-23.1-1.7h-0.3c-3.4,0.2-7,0.5-10.6,1.1c-3.5,1.1-4.7,3.8-4.9,5.8
	c-0.7-1.7-0.8-3.3,0.2-4.8c-5.8,1.4-11.8,3.4-17.5,6.6c-0.2,0.1-0.3,0.2-0.5,0.3l-0.3,0.2c-2.9,1.7-5.7,3.6-8.2,5.7
	c-0.1,0.1-0.2,0.1-0.2,0.2c-17.7,14.4-25.6,35.5-26.4,37.8c-0.1,0.1-0.1,0.2-0.1,0.2h0.2c1.3,0.3,8.4,1.7,18,1.8h0.3
	c3,0,6.3-0.1,9.8-0.4h0.5c4.6-0.5,9.4-1.3,14.3-2.7l-1.5-3l6,1.5C322.5,135.4,325.4,134.1,328.3,132.5L328.3,132.5z M354.7,89
	c0.4,0.1,0.7,0.5,0.6,0.9s-0.5,0.7-0.9,0.6s-0.7-0.5-0.6-0.9C353.8,89.2,354.2,89,354.7,89z M352,89.4c0.3,0.6,0.1,1.4-0.5,1.7
	c-0.6,0.3-1.4,0.1-1.7-0.5c-0.3-0.6-0.1-1.4,0.5-1.7C350.9,88.6,351.6,88.8,352,89.4z M323.8,96.4c0.2,0.4,0.1,0.9-0.3,1.2
	c-0.4,0.2-0.9,0.1-1.2-0.3c-0.2-0.4-0.1-0.9,0.3-1.2C323.1,95.9,323.6,96,323.8,96.4z M319.8,95.4c0.4,0.7,0.1,1.7-0.6,2.1
	s-1.7,0.1-2.1-0.6s-0.1-1.6,0.6-2C318.5,94.4,319.4,94.7,319.8,95.4z M345.2,116.7c0.1,0.2,0,0.4-0.2,0.6c-0.2,0.1-0.5,0.1-0.6-0.2
	c-0.1-0.2,0-0.5,0.2-0.6C344.9,116.4,345.1,116.5,345.2,116.7z M349.4,108.4c0.3,0.5,0.1,1-0.4,1.3s-1,0.1-1.3-0.4s-0.1-1,0.4-1.3
	S349.2,107.9,349.4,108.4z M345.8,109c0.1,0.2,0,0.4-0.2,0.6c-0.2,0.1-0.5,0-0.6-0.2s0-0.5,0.2-0.6S345.7,108.8,345.8,109z"/>
<path class="st3" d="M332.6,117l1.9,6.4l-0.3,0.1l-2-6.6l-12-4.2l-13,7.2l13.6,4.9l-0.1,0.3l-13.8-4.9l-22.6,12.4l16.4,8.1h-0.5
	l-10.4-5.1l0.6,5.6h-0.3l-0.7-5.7l-5.5-2.7l-12.1,6.7l-0.1-0.2l17.5-9.7l2.1-8.5l0.3,0.1l-2,8.2l12.1-6.7l2.1-11.2
	c-1.3-2.3-3.9-7.2-5.5-10l0.2-0.2c1.7,3,4.5,8.2,5.4,9.8l2.9-15.4l0.3-0.2l-5,27.1l24.2-13.6l0.2-8.5h0.3l-0.2,8.4l10.3-5.7
	l3.6-16.7h0.3l-1.8,8.3c2.7-1.7,6.5-4.3,6.7-4.4l0.1,0.1l0.1-0.1v0.1c0,0.1,0,0.2-7,4.7l-1.7,7.8l26.7-14.8h0.2c0,0,0,0.1-0.1,0.2
	L343,100l15.8-0.3c-0.1,0.1-0.1,0.2-0.1,0.3l-16.2,0.3l-22,12.2l23.2,8.1l-0.2,0.2L332.6,117L332.6,117z"/>
<path class="st3" d="M270.8,423.3H114.7c-13.4,0-24.2-10.8-24.2-24.2V91.9h204.6v307.2C295.1,412.5,284.2,423.3,270.8,423.3
	L270.8,423.3z"/>
<path class="st1" d="M277.7,64H107.8c-11.5,0-20.9,9.3-20.9,20.9v318.5c0,6.3,2.8,11.9,7.2,15.8l0.4,0.4c3.6,3,8.2,4.7,13.2,4.7
	h169.8c5,0,9.6-1.8,13.2-4.7c4.7-3.8,7.7-9.6,7.7-16.1V84.9C298.6,73.3,289.2,64,277.7,64L277.7,64z M294.1,395.3
	c0,12.1-10.4,21.9-23.2,21.9H114.6c-12.8,0-23.2-9.8-23.2-21.9V105.5c0-7.5,6.5-13.6,14.4-13.6h173.9c8,0,14.4,6.1,14.4,13.6V395.3z
	"/>
<path class="st3" d="M120.6,78.6c0,3.7-3,6.7-6.7,6.7c-3.7,0-6.7-3-6.7-6.7s3-6.7,6.7-6.7C117.6,71.9,120.6,74.9,120.6,78.6z"/>
<path class="st1" d="M118.4,78.6c0,2.5-2,4.5-4.5,4.5s-4.5-2-4.5-4.5s2-4.5,4.5-4.5S118.4,76.1,118.4,78.6z"/>
<path class="st3" d="M134.4,78.6c0,2.5-2,4.5-4.5,4.5c-2.5,0-4.5-2-4.5-4.5s2-4.5,4.5-4.5C132.4,74.1,134.4,76.1,134.4,78.6z"/>
<path class="st1" d="M133,110.5h-27.4c-0.7,0-1.3-0.6-1.3-1.3v-0.6c0-0.7,0.6-1.3,1.3-1.3H133c0.7,0,1.3,0.6,1.3,1.3v0.6
	C134.3,109.9,133.7,110.5,133,110.5z M133,119.3h-27.4c-0.7,0-1.3-0.6-1.3-1.3v-0.6c0-0.7,0.6-1.3,1.3-1.3H133
	c0.7,0,1.3,0.6,1.3,1.3v0.6C134.3,118.7,133.7,119.3,133,119.3z M133,128.1h-27.4c-0.7,0-1.3-0.6-1.3-1.3v-0.6
	c0-0.7,0.6-1.3,1.3-1.3H133c0.7,0,1.3,0.6,1.3,1.3v0.6C134.3,127.5,133.7,128.1,133,128.1z M210.4,381.9H117c-1,0-1.9-0.4-1.9-0.9
	s0.8-0.9,1.9-0.9h93.4c1,0,1.9,0.4,1.9,0.9S211.4,381.9,210.4,381.9z M258.2,400.6h-90.3c-1,0-1.9-0.4-1.9-0.9s0.8-0.9,1.9-0.9h90.3
	c1,0,1.9,0.4,1.9,0.9C260.1,400.1,259.3,400.6,258.2,400.6z M258.9,381.9H221c-1,0-1.9-0.4-1.9-0.9s0.8-0.9,1.9-0.9h37.9
	c1,0,1.9,0.4,1.9,0.9S260,381.9,258.9,381.9z M132,390.7h-15c-1,0-1.9-0.4-1.9-0.9s0.8-0.9,1.9-0.9h15c1,0,1.9,0.4,1.9,0.9
	S133.1,390.7,132,390.7z M152.3,400.6H117c-1,0-1.9-0.4-1.9-0.9s0.8-0.9,1.9-0.9h35.3c1,0,1.9,0.4,1.9,0.9
	C154.2,400.1,153.4,400.6,152.3,400.6L152.3,400.6z M258.9,390.7h-18.1c-1,0-1.9-0.4-1.9-0.9s0.8-0.9,1.9-0.9h18.1
	c1,0,1.9,0.4,1.9,0.9S260,390.7,258.9,390.7z M228.3,390.7h-83.4c-1,0-1.9-0.4-1.9-0.9s0.8-0.9,1.9-0.9h83.4c1,0,1.9,0.4,1.9,0.9
	C230.1,390.3,229.3,390.7,228.3,390.7z"/>
<circle class="st1" cx="192.7" cy="184" r="44.3"/>
<circle class="st3" cx="192.1" cy="171.4" r="17.2"/>
<path class="st3" d="M207.9,188.7c-1.4-1.1-3.3-1-4.7,0.1c-3,2.4-6.7,3.9-10.9,3.9c-4,0-7.7-1.4-10.6-3.6c-1.4-1.1-3.4-1.1-4.7,0.1
	c-3.5,3-5.6,7.3-5.6,12.8v0.5c0,2.9,2.3,5.2,5.2,5.2h32.1c2.9,0,5.2-2.3,5.2-5.2V202C214,196.1,211.7,191.7,207.9,188.7L207.9,188.7
	z"/>
<path class="st1" d="M242.5,277.3h-99.6c-2.3,0-4.1-1.8-4.1-4.1v-21.3c0-2.3,1.8-4.1,4.1-4.1h99.6c2.3,0,4.1,1.8,4.1,4.1v21.3
	C246.6,275.5,244.8,277.3,242.5,277.3L242.5,277.3z"/>
<path class="st1" d="M221.5,292.9h-57.9c-0.4,0-0.8-0.3-0.8-0.8v-1.4c0-0.4,0.3-0.8,0.8-0.8h57.9c0.4,0,0.8,0.3,0.8,0.8v1.4
	C222.3,292.6,221.9,292.9,221.5,292.9L221.5,292.9z M241.8,304.1h-98.5c-0.4,0-0.8-0.3-0.8-0.8v-1.4c0-0.4,0.3-0.8,0.8-0.8h98.4
	c0.4,0,0.8,0.3,0.8,0.8v1.4C242.5,303.7,242.2,304.1,241.8,304.1z"/>
<path class="st3" d="M147.5,263l4.4-0.3c0.1,0.7,0.3,1.3,0.6,1.6c0.5,0.6,1.2,0.9,2.1,0.9c0.7,0,1.2-0.2,1.5-0.5
	c0.4-0.3,0.5-0.7,0.5-1.1s-0.2-0.7-0.5-1s-1.1-0.6-2.4-0.9c-2-0.5-3.5-1.1-4.4-1.8c-0.9-0.8-1.3-1.7-1.3-2.9c0-0.8,0.2-1.5,0.7-2.2
	c0.4-0.7,1.1-1.2,2-1.6c0.9-0.4,2.1-0.6,3.7-0.6c1.9,0,3.4,0.4,4.4,1.1c1,0.7,1.6,1.9,1.8,3.4l-4.4,0.3c-0.1-0.7-0.4-1.2-0.7-1.5
	c-0.4-0.3-0.9-0.5-1.5-0.5c-0.5,0-0.9,0.1-1.2,0.3s-0.4,0.5-0.4,0.8c0,0.2,0.1,0.5,0.3,0.6c0.2,0.2,0.7,0.4,1.6,0.6
	c2,0.4,3.5,0.9,4.4,1.3s1.5,1,1.9,1.7s0.6,1.4,0.6,2.2c0,1-0.3,1.9-0.8,2.7c-0.5,0.8-1.3,1.4-2.2,1.9c-1,0.4-2.2,0.6-3.6,0.6
	c-2.6,0-4.3-0.5-5.3-1.5C148.2,265.8,147.6,264.5,147.5,263L147.5,263z M163.4,252.9h4.2v2.8h-4.2V252.9z M163.4,257.1h4.2V268h-4.2
	V257.1z M177.8,257.1h3.9v10.8c0,0.7-0.1,1.3-0.4,2c-0.3,0.6-0.7,1.1-1.2,1.5s-1.1,0.7-1.8,0.8c-0.7,0.2-1.6,0.3-2.6,0.3
	c-2.2,0-3.7-0.3-4.5-1s-1.2-1.5-1.2-2.6v-0.6l4.1,0.5c0.1,0.4,0.3,0.6,0.5,0.8c0.3,0.2,0.7,0.3,1.2,0.3c0.6,0,1.1-0.2,1.4-0.5
	c0.3-0.3,0.4-0.9,0.4-1.7V266c-0.4,0.5-0.8,0.8-1.2,1.1c-0.6,0.3-1.3,0.5-2.1,0.5c-1.5,0-2.6-0.6-3.5-1.9c-0.6-0.9-1-2.1-1-3.6
	c0-1.7,0.4-3,1.2-3.9s1.9-1.3,3.2-1.3c0.8,0,1.6,0.1,2.1,0.4c0.6,0.3,1.1,0.8,1.5,1.4L177.8,257.1L177.8,257.1z M173.9,262.4
	c0,0.8,0.2,1.4,0.5,1.8s0.8,0.6,1.3,0.6s1-0.2,1.3-0.6c0.4-0.4,0.5-1,0.5-1.8s-0.2-1.4-0.6-1.8s-0.8-0.6-1.4-0.6
	c-0.5,0-1,0.2-1.3,0.6C174,260.8,173.9,261.5,173.9,262.4z M184.3,257.1h3.9v1.8c0.6-0.7,1.2-1.2,1.8-1.6s1.3-0.5,2.2-0.5
	c1.2,0,2.1,0.3,2.7,1c0.7,0.7,1,1.8,1,3.2v6.9h-4.2v-6c0-0.7-0.1-1.2-0.4-1.5c-0.3-0.3-0.6-0.4-1.1-0.4s-0.9,0.2-1.2,0.6
	s-0.5,1.1-0.5,2.1v5.2h-4.2L184.3,257.1L184.3,257.1z M215.4,252.9h4.6v9c0,0.9-0.1,1.7-0.4,2.5c-0.3,0.8-0.7,1.5-1.3,2.1
	s-1.2,1-1.9,1.2c-0.9,0.3-2,0.5-3.3,0.5c-0.7,0-1.5-0.1-2.4-0.2s-1.6-0.3-2.2-0.6c-0.6-0.3-1.1-0.7-1.6-1.3c-0.5-0.6-0.8-1.1-1-1.7
	c-0.3-1-0.4-1.8-0.4-2.5v-9h4.6v9.2c0,0.8,0.2,1.5,0.7,1.9c0.5,0.5,1.1,0.7,1.9,0.7c0.8,0,1.4-0.2,1.9-0.7s0.7-1.1,0.7-1.9
	L215.4,252.9L215.4,252.9z M222.9,272.2v-15.1h3.9v1.6c0.5-0.7,1-1.1,1.5-1.4c0.6-0.3,1.3-0.5,2-0.5c1.5,0,2.6,0.6,3.4,1.7
	c0.8,1.1,1.2,2.5,1.2,4.1c0,1.8-0.4,3.2-1.3,4.2s-2,1.4-3.3,1.4c-0.6,0-1.2-0.1-1.8-0.3c-0.5-0.2-1-0.5-1.4-1v5.2L222.9,272.2
	L222.9,272.2z M227.1,262.6c0,0.9,0.2,1.5,0.5,1.9c0.4,0.4,0.8,0.6,1.4,0.6c0.5,0,0.9-0.2,1.2-0.6s0.5-1.1,0.5-2s-0.2-1.5-0.5-1.9
	s-0.8-0.6-1.3-0.6s-1,0.2-1.3,0.6S227.1,261.6,227.1,262.6L227.1,262.6z"/>
<path class="st5" d="M329.5,416.8c0.1,1.5-1.6,3.1-1.7,4.7c6.5,1.4,13,2.5,19.6,3.7c-0.9-4.4-6-5.2-10.1-6.3c-1.4-0.4-2.3-1.6-2.3-3
	c0.6-25.8,11.3-55.1,5.4-80.3c-2,0-2.2,0.6-4.6,0.5s-6.5-0.4-9.3-0.6C325.7,359.4,329.4,414.7,329.5,416.8L329.5,416.8z"/>
<path class="st5" d="M291.4,392.5c-1.5-0.5-3.2,1.1-4.6,0.7c1.3,6,3.3,9.7,6,15.2c1.1-2.3,1.1-5.3,1.1-8c0-2.2,1.5-4.1,3.6-4.7
	c7.9-2.2,25.1-7.8,27.7-13.7c5.8-12.8,13.8-27.5,10.8-46.2c-3.9-0.1-7.7-0.5-11.6-0.6c-7.2,10.4-9.1,38.2-10.9,41.3
	C310.1,382.5,293,390.4,291.4,392.5L291.4,392.5z"/>
<path class="st6" d="M343.2,420.7c1.6,0.8,6.7,1.5,5.4,4.5c-1.3,3-16.9,0-19.7-1.6c-2.8-1.6-0.2-4.8,0.6-6.6
	c2.5,4.9,9.7,7.6,14.5,5.5C345.9,421.8,343.5,421,343.2,420.7z M293.8,404.2c0,0,1,7.1-1.7,6.6c-2.7-0.6-7.4-13.5-6.3-16.3
	c1.3-3.2,4.5-2.4,5.6-2c-3.9,2.7-1.9,11.1,1.2,13.2C293.6,406.4,293.8,404.2,293.8,404.2L293.8,404.2z M305.2,374.6
	c0,0,3.7,4.1,7.1,3.2c0,0,3.8,5.8,9.8,1.8c4.5,2.8,9.1,2.8,13.6,0c6,4,9.8-1.8,9.8-1.8c3.4,0.8,7.1-3.2,7.1-3.2
	c-3.3-15.5-10.4-28.7-12.1-39.7l-16.5,0.5C318.9,340.5,315.7,361.7,305.2,374.6z M331.7,286.6c1.7,1.8,2.4,5,1,7.1
	c-1.1,2.3-1.1,4.9-0.9,7.4c-0.5-2.5-0.6-5.2,0.6-7.5C333.8,291.5,333.1,288.5,331.7,286.6z"/>
<path class="st5" d="M349.9,278.1c0,0,0.5-0.3,0.5-1.8c0-0.5-0.9-3,0-3.5c0.7-0.4,1.3,1.9,1.5,1.9c1.4-0.5,1.9-5.3,3.7-4.7
	c1,0.3,0.1,4.8-1.5,7.1c-0.2,0.3-0.2,2.3-0.2,2.3L349.9,278.1z"/>
<path class="st6" d="M332.2,293.5c1.2-2.4,1.5-6.7-2.4-8.1c-2.9-1-5.2-1.1-7.8,0.9c-2.6,2-3.6,6.3-3,9.3c0.7,3.7-3.7,6.9-2,9.9
	c2.3,4,13.8,0.6,17.7,0C332.1,301.3,329.6,299.2,332.2,293.5L332.2,293.5z"/>
<path class="st7" d="M331.6,314.1c5.2-1.8,14.6-10.3,17-14.3c1.1-2.6,4.8-16.7,5.7-20.2c0.1-0.5-0.1-1-0.6-1.2
	c-1-0.4-2.1-0.7-3.2-0.9c-0.5-0.1-0.9,0.2-1.1,0.6l-6.2,17.4c-2.4,1.6-17.2,8-18.7,13.1C323.3,312.7,326.5,315.9,331.6,314.1
	L331.6,314.1z"/>
<path class="st8" d="M353.6,278.4c-0.1-0.1-0.3-0.1-0.4-0.2c-1,3.8-4.6,17.6-5.7,20.1c-6.6,12.2-10.5,6.6-14.6,6.6
	c-2.7,0-0.8,7.1-2.4,7.6c-2.6,0.9-4.8,0.5-6.1-0.7c0.9,2.2,3.5,3.4,7.1,2.1c5.2-1.8,14.6-10.3,17-14.3c1.1-2.6,4.8-16.7,5.7-20.2
	C354.4,279.1,354.1,278.6,353.6,278.4z"/>
<path class="st9" d="M341.4,336.5c0,0.1-0.1,0.2-0.2,0.3c-3.8,3-12.3,0.3-17.7-0.1c-0.5,0-0.9-0.5-0.8-0.9c0.8-11.6-8-23.7,3.1-32.6
	c1.7,0,3.4-0.5,5,0c8.3,2.6,9.7,10.9,10,18.9c0.1,4.9-0.1,9.7,0.5,13.1c0,0.1,0,0.2,0.1,0.3c0.1,0.3,0.1,0.5,0.2,0.7
	C341.4,336.3,341.4,336.4,341.4,336.5L341.4,336.5z"/>
<path class="st10" d="M340.7,322c-0.1,4.6,0.2,12.6,0.5,13.1c-2.8-2.7-3.2-7.5-5.9-9.1c-3.7-2.2-8.2-6.1-8.2-6.1l4.4,0.4L340.7,322z
	"/>
<path class="st5" d="M325.5,304.2l-0.6-0.3c0.3-1.5,0.6-4.8,0.6-6.8v-1.2c0.9,0.8,2.6,1.1,3.2,2.1c0.7,1,1.2,4.7,1.2,4.9
	C330.9,306.6,327.4,305.2,325.5,304.2L325.5,304.2z"/>
<path class="st11" d="M329.4,300.2c0,0-1.8-0.2-2.8-0.2c-1.2-0.1-1.2,3.3-1.2,4.2l-0.6-0.3c0.3-1.5,0.6-4.8,0.6-6.8
	C327.1,298.3,329.4,300.2,329.4,300.2L329.4,300.2z"/>
<path class="st5" d="M331.5,299.2c2-0.9,1.5-7.6-0.2-9.7c-1.7,2.2-4.8,2.1-7.2,1.4c0.2,0.6,0.1,2.4,0.5,3.1
	c-0.4-0.7-1.8-0.6-1.6,0.7c0.2,1.2,1,1.5,2,1.8C326.1,298.9,328.8,300.4,331.5,299.2L331.5,299.2z"/>
<path class="st3" d="M359.6,295.5c-0.9-0.5-1.7-0.9-2.7-1.2c-0.1,0-0.3-0.1-0.4-0.1c-1.5-0.3-3-0.4-4.6-0.2h-0.4
	c-0.2,0-0.4,0-0.6,0.1h-0.6c-0.1-0.3-0.2-0.5-0.3-0.8c-0.5-1.4-0.9-2.9-1.1-4.5c0-0.3-0.1-0.6-0.1-0.8c0.1,0,0.1,0,0.2-0.1
	c0.1,0,0.2,0,0.2-0.1c0.1,0,0.2,0,0.2-0.1c0.2-0.1,0.4-0.1,0.6-0.2c0.1,0,0.3-0.1,0.4-0.1c1.4-0.5,2.8-1.1,3.9-2.1l0.3-0.3
	c0.7-0.7,1.2-1.5,1.6-2.6L359.6,295.5L359.6,295.5z"/>
<path class="st12" d="M359.3,294.3l-3-11.7c0,0.1-0.1,0.2-0.1,0.4L359.3,294.3L359.3,294.3z"/>
<path class="st13" d="M359.6,295.5c-2.5-1.6-5.4-1.8-8.4-1.4h-1c-0.1-0.3-0.2-0.5-0.3-0.8c0,0.1,0.1,0.2,0.1,0.3h0.9
	c3-0.5,5.9-0.4,8.4,1.1L359.6,295.5z"/>
<path class="st14" d="M363.8,287.6c0.9,3.8-0.3,7.4-2.7,8c-2.4,0.6-5.2-2.1-6.1-5.9s0.3-7.4,2.7-8S362.9,283.7,363.8,287.6z"/>
<path class="st3" d="M345,289.5l1.2,5.1c-0.6,0.1-2,0.6-2.7,0.5c-1.6-0.1-2.8-1.9-2.2-3.4C341.7,290.1,343.7,289.8,345,289.5z"/>
<path class="st13" d="M346.2,294.3l0.1,0.4c-0.6,0.1-2,0.6-2.7,0.5c-1.6-0.1-2.8-1.9-2.2-3.4c0.1-0.3,0.2-0.5,0.4-0.7
	c-0.8,1.5,0.4,3.6,2.1,3.7C344.4,294.8,345.6,294.4,346.2,294.3L346.2,294.3z"/>
<path class="st15" d="M363.1,287.7c0.8,3.3-0.2,6.3-2.1,6.8c-0.7,0.2-1.5,0-2.2-0.5c-0.5-0.3-1-0.8-1.4-1.5
	c-0.2-0.2-0.3-0.4-0.4-0.7c-0.4-0.7-0.7-1.5-0.9-2.4c-0.2-0.7-0.3-1.4-0.3-2v-0.3c0-0.7,0.1-1.4,0.3-2c0.4-1.3,1.1-2.2,2.1-2.4
	C360.1,282.2,362.3,284.5,363.1,287.7z"/>
<path class="st14" d="M351.4,300.2c-0.1,0-0.2,0-0.2-0.1c-0.4-1.1-1.1-1.7-1.6-2.6c-0.6-1.1-0.5-2.8-1.8-3.7l-2.3,0.5l3.1,6.3
	c0.1,0.1,0,0.3-0.1,0.3s-0.2,0.1-0.2,0.2l0.2,0.7c0,0.1,0.1,0.2,0.2,0.2l2.9-0.7c0.1,0,0.2-0.1,0.2-0.2l-0.2-0.7
	C351.6,300.3,351.5,300.2,351.4,300.2L351.4,300.2z"/>
<path class="st16" d="M349.2,301.6c-0.1,0-0.2,0-0.2-0.2l-0.2-0.7c0-0.1,0-0.2,0.2-0.2c0.1,0,0.2-0.2,0.1-0.3l-2.9-6l-0.6,0.1
	l3.1,6.3c0.1,0.1,0,0.3-0.1,0.3s-0.2,0.1-0.2,0.2l0.2,0.7c0,0.1,0.1,0.2,0.2,0.2l2.9-0.7c0.1,0,0.2-0.1,0.2-0.2V301L349.2,301.6
	L349.2,301.6z"/>
<path class="st17" d="M360.3,293.8c-0.5-0.3-1-0.8-1.4-1.5c-0.2-0.2-0.3-0.4-0.4-0.7c-0.4-0.7-0.7-1.5-0.9-2.4
	c-0.2-0.7-0.3-1.4-0.3-2v-0.3c0-0.7,0.1-1.4,0.3-2c0.3-1,0.8-1.8,1.5-2.2c-0.3-0.1-0.6,0-0.9,0c-1,0.2-1.8,1.2-2.1,2.4
	c-0.2,0.6-0.3,1.3-0.3,2v0.3c0,0.7,0.1,1.3,0.3,2c0.2,0.9,0.5,1.7,0.9,2.4c0.1,0.2,0.3,0.5,0.4,0.7c0.4,0.6,0.9,1.1,1.4,1.5
	c0.7,0.5,1.5,0.7,2.2,0.5c0.2-0.1,0.4-0.1,0.6-0.2C361.2,294.2,360.8,294,360.3,293.8L360.3,293.8z"/>
<path class="st14" d="M344.3,289.3c-0.7,0.3-1,1.1-0.8,1.9l0.7,2.8c0.2,0.8,0.9,1.4,1.6,1.3c1.1-0.1,2.5-0.2,3.6-0.3
	c0.8-0.1,1.3-0.8,1-1.4c-0.6-1.7-1-3.4-1.2-5.1c0-0.5-0.6-0.8-1.1-0.6C346.8,288.3,345.6,288.8,344.3,289.3L344.3,289.3z"/>
<path class="st3" d="M360.5,289.9l-3.6,1.9c-0.4-0.7-0.7-1.5-0.9-2.4c-0.2-0.7-0.3-1.4-0.3-2v-0.3l4.2,0.4L360.5,289.9L360.5,289.9z
	"/>
<path class="st18" d="M358,290.8c-0.5,0.3-1.1,0.1-1.3-0.4c-0.2-0.5-0.4-1-0.5-1.5c-0.1-0.6-0.2-1.1-0.3-1.7h-0.2v0.3
	c0,0.7,0.1,1.3,0.3,2c0.2,0.9,0.5,1.7,0.9,2.4l3.6-1.9l-0.1-0.5L358,290.8L358,290.8z"/>
<path class="st14" d="M361.2,288.5c0.2,0.7-0.1,1.4-0.5,1.5c-0.5,0.1-1-0.4-1.2-1.1s0.1-1.4,0.5-1.5
	C360.5,287.3,361,287.8,361.2,288.5z"/>
<path class="st19" d="M361,288.5c0.1,0.6,0,1.2-0.4,1.3c-0.4,0.1-0.8-0.3-0.9-1c-0.1-0.6,0-1.2,0.4-1.3
	C360.5,287.5,360.9,287.9,361,288.5z"/>
<path class="st3" d="M360.2,288.8c0-0.2,0-0.4,0.1-0.4s0.2,0.1,0.3,0.3c0,0.2,0,0.4-0.1,0.4S360.3,289,360.2,288.8z"/>
<path class="st16" d="M349.5,294.2c-1.1,0.1-2.4,0.2-3.6,0.3c-0.7,0.1-1.4-0.5-1.6-1.3l-0.7-2.8c0-0.1-0.1-0.3-0.1-0.4
	c-0.2,0.3-0.2,0.8-0.1,1.2l0.7,2.8c0.2,0.8,0.9,1.4,1.6,1.3c1.1-0.1,2.5-0.2,3.6-0.3c0.7-0.1,1.2-0.7,1.1-1.3
	C350.2,293.9,349.8,294.1,349.5,294.2L349.5,294.2z"/>
<path class="st3" d="M346.5,290.3l-1.6,0.4c-0.2,0.1-0.5-0.1-0.5-0.3c-0.1-0.2,0.1-0.5,0.3-0.5l1.6-0.4c0.2-0.1,0.5,0.1,0.5,0.3
	C346.9,290.1,346.8,290.3,346.5,290.3z"/>
<path class="st13" d="M346.9,290.1l-1.9,0.5c-0.1,0-0.3,0-0.3-0.2l-0.1-0.4c-0.1,0-0.2,0.2-0.1,0.3l0.1,0.4c0,0.1,0.2,0.2,0.3,0.2
	l1.9-0.5C346.8,290.3,346.9,290.2,346.9,290.1z"/>
<path class="st3" d="M345.3,291.6l-0.2,0.1c-0.2,0-0.3-0.1-0.4-0.2c0-0.2,0.1-0.3,0.2-0.4l0.2-0.1c0.2,0,0.3,0.1,0.4,0.2
	C345.6,291.4,345.5,291.6,345.3,291.6z"/>
<path class="st13" d="M345.5,291.5l-0.6,0.1c-0.1,0-0.2,0-0.2-0.1l-0.1-0.3v-0.1c0,0-0.1,0.1,0,0.2l0.1,0.3c0,0.1,0.1,0.1,0.2,0.1
	L345.5,291.5C345.6,291.6,345.6,291.5,345.5,291.5C345.6,291.5,345.6,291.5,345.5,291.5z"/>
<path class="st3" d="M346.2,291.1c0-0.2,0.1-0.4,0.3-0.5c0.2,0,0.4,0.1,0.5,0.3c0,0.2-0.1,0.4-0.3,0.5
	C346.5,291.4,346.3,291.3,346.2,291.1z"/>
<path class="st13" d="M346.7,291.3c-0.2,0-0.4-0.1-0.5-0.3v-0.2c-0.1,0.1-0.1,0.2-0.1,0.3C346.3,291.3,346.5,291.4,346.7,291.3z"/>
<path class="st19" d="M344.1,295.1h-0.6c-1.2-1.2-1.6-3.4-1.4-4.7c0.2-0.1,0.3-0.2,0.5-0.3C342.3,291.5,342.8,293.8,344.1,295.1z"/>
<path class="st5" d="M347.1,302.5c0,0,0.4-1.7,0.2-2.3c-0.1-0.5-1.1-2.3-0.5-3.3c1-1.6,4.7-1.3,5.1,0.1c0.3,1.4-0.4,2.9-1,3.7
	c-0.4,0.6-0.5,2.7-0.5,2.7L347.1,302.5L347.1,302.5z"/>
<path class="st7" d="M324.5,317.8c3.1,3.2,15.2,9.8,20.5,8.2c6-1.8,5.9-18.1,6.4-22c0.1-0.4-0.2-0.9-0.7-1l-3.7-0.8
	c-0.4-0.1-0.9,0.2-1,0.6l-4.1,12.9c0,0-9-6.7-13.8-8.5C324.5,305.9,320.1,313.3,324.5,317.8L324.5,317.8z"/>
<path class="st8" d="M350.8,303.1c-0.5,4.3-0.7,19.3-6.6,21c-5.4,1.6-17.2-4.3-20.3-7.5c-0.3-0.3-0.6-0.6-0.8-1
	c0.3,0.8,0.8,1.5,1.4,2.2c3.1,3.2,15.2,9.8,20.5,8.2c6-1.8,5.9-18.1,6.4-22C351.5,303.6,351.2,303.2,350.8,303.1L350.8,303.1z"/>
<path class="st11" d="M331.1,289.8c0,0,0.1,2.3-2.2,3.1c0,0,0.5-0.9-0.6-1.7c0,0,0.1,1.4-0.7,2.2c-0.8,0.8-2.1,2.1-1.3,4l-0.6-0.6
	l-0.3-4.9l3.3-2.1H331.1L331.1,289.8z"/>
<path class="st6" d="M332.6,292.5c0,0-0.2-1.9-1.5-2.7c0,0-0.5,2.1-2.3,2.7c0,0,0-1-0.5-1.4c0,0-0.3,1.5-1.8,2.7
	c-1.4,1.1-0.1,3.6,0.4,4.1c0,0-2.6-1.5-2.3-4.3c0,0-2.1-1.8-2.1-1.9s0.1-2.1,0.1-2.1l4.8-1.3c0-0.1,2-0.7,2-0.7l1.5,0.1l1.1,0.4
	L332.6,292.5L332.6,292.5z"/>
<path class="st6" d="M327.3,285.5c-0.9-0.9-2.5-0.4-3.5,0c-3.9,1.4-6.1,5.9-4.6,9.8c0.4,1.3,1.2,1.3,0.3,2.7
	c-1.1,1.5-2.6,2.8-3.1,4.6c-0.5,1.7,0,4.1,2.1,4.4c-2.1-0.2-2.8-2.7-2.3-4.5c0.4-1.6,1.5-2.8,2.5-4c0.4-0.5,0.8-1.1,0.9-1.7
	c-0.1-0.2-0.3-0.3-0.4-0.5c-1.8-3.5-0.7-8.1,2.8-10.1C323.5,285.3,325.9,284.1,327.3,285.5L327.3,285.5z"/>
<path class="st20" d="M212.1,341c0,0,0.6,39.9,7.9,48.8c3.5,4.3,15.2,27.3,15.2,27.3c1.3,0.2,2.5-0.1,3.5-1.6
	c-2.4-13-5.6-24.2-10.7-30.6c-2.7-18.4,5.2-26.4-3.5-43.8L212.1,341L212.1,341z"/>
<path class="st20" d="M209,341c-3.1,19.1-2,30,0.5,50c0,0.2,0.1,0.4,0.1,0.6l7.1,30.6l3.6,0.5c0.9-10.1,0.4-22.8-1.4-31.4
	c1.3-24.9,13.9-31.8,2.2-50.3L209,341L209,341z"/>
<path class="st6" d="M233.1,398.1c-4-0.5-7.7-2.8-10.2,0.1c-1.9,2.1-4,3.9-6.7,4.7c-1.1,0.4-2.3,0.6-3.7,0.6
	c-2.4,0.1-4.6-1.8-5.3-4.6c-1.2-5.3-3.1-15-3.1-24.9c0-17.8,5.1-34.3,5.1-34.3s0.1,0,0.2-0.1c1.6-0.4,12-2.5,15.9,2.3
	c4.2,5.2,7.2,12,6.1,25.2c-0.8,9.5,3,18.3,5.5,24.6C238.3,394.9,236.1,398.5,233.1,398.1L233.1,398.1z"/>
<path class="st20" d="M212,310.1l-4.4,9.2c0,0-0.1-0.2-0.4-0.7c-1.7-2.7-8-13-9.6-17.1c-1.3-3.3-1.5-11.8-1.3-17.6
	c0.1-2.1,0.2-3.9,0.4-4.9c0,0-2.7-2.5-0.2-3.8c2.4-1.3,0.7-5.2,1.6-5.3c0.9-0.1,1.4,5.1,1.4,5.1s1.3-1.4,1.7-0.8
	c0.7,0.8-1.6,4.9-1.6,4.9c0.3,1,0.6,1.9,0.9,2.9c1.5,5.1,2.5,10.7,3,16.7C206.3,301.4,209.1,305.5,212,310.1L212,310.1z"/>
<path class="st21" d="M224,340.6h-15.6c0.8-3.5,2.8-5.4-0.1-13.4c-1.2-3.3-1.4-6.2-1.1-8.5c0.8-5.8,4.8-8.6,4.8-8.6l3.7-2.1h4.6
	l4.6,3.3c0,0-0.2,12.9-1,17.3C223.3,332.4,222.5,336.9,224,340.6L224,340.6z"/>
<path class="st22" d="M226.6,343c-7.2,3.7-9.6-0.3-15-0.3c-0.4,0-0.9,0-1.3,0.1c-1.6,0.2-3-1.3-2.7-2.9c0.9-5,0.6-10.6-0.7-18
	c-0.3-1.7-0.7-3.3-1.4-4.9c-0.4-0.9-0.8-1.9-1.3-2.7c-2.3-4.2-5.4-9.9-6.5-12.7c-1.3-3.3-1.5-11.8-1.3-17.6l4.3-2
	c1.5,5.1,2.5,10.2,3.4,16.5c2.2,2.3,4.1,5.5,6.3,9.1c0.9,1.4,2.7,1.9,4.2,1.1l1.1-0.6h4.6l4.6,3.3c0,0-0.2,12.9-1,17.3
	C223.3,332.4,225.1,339.3,226.6,343L226.6,343z"/>
<path class="st20" d="M240.6,330.1v0.2c-0.2,1.2-0.9,2.7-2,4.1c-2.1,2.7-5.2,5.5-7.2,7.2c-1.2,0.9-1.9,1.5-1.9,1.5
	c2,4.5-2.1,8.7-3.3,6.3c-0.3-0.5,0.7-2.3,0.7-3c0-0.4-0.8-0.9-1.3-1.7c-0.6-0.9-0.1-2,0.3-2.5c0.7-1,1.4-2.1,2.1-3.2
	c1.9-3,4-6.3,6.8-8.5c-4.8-2.6-8.1-3.7-11.4-6.7l1.6-12.5C224.9,311.3,241,324.3,240.6,330.1L240.6,330.1z"/>
<path class="st22" d="M240.6,330.1v0.2c-0.7,1.4-1.4,2.8-2,4.1c-2.1,2.7-5.2,5.5-7.2,7.2L228,339c1.9-3,4-6.3,6.8-8.5
	c-4.8-2.6-8.1-3.7-11.4-6.7l1.6-12.5C224.9,311.3,241,324.3,240.6,330.1L240.6,330.1z"/>
<path class="st20" d="M212.5,292.2c0,0-1.9,5.4-0.5,8.7c1.5,3.4,7.5,1.1,7.5,1.1L212.5,292.2L212.5,292.2z"/>
<path class="st20" d="M216.1,302.5l-0.4,5.5h4.6l-0.2-5.8L216.1,302.5z"/>
<path class="st6" d="M233.6,311.2c-0.4-3,1.3-4.4,0.2-7.2c-1-2.7-4.2-3.9-5.6-6.4c-1.1-1.9-1-4.2-1.7-6.2c-1.1-2.9-4-4.9-7.1-5
	s-6.1,1.8-7.3,4.6c0,0-1.6,2.9,0.8,6.9c1.3,2.2,4.7,4.1,5.5,6.5c1.4,4.5-4.7,10.6-3,14.9c0.9,2.4,3.7,2.3,4.2,4.8
	c0.4,2.2-3.7,3.9,0,8.7c2.7,3.6,6,0.7,8.2,0.5c1.8-0.2,4.9,1.7,8.1-0.2c6-3.4,1-8,2.2-12.6C239.8,314.7,234.1,314.5,233.6,311.2
	L233.6,311.2z M220.4,421l0.6,3c0.2,0.8,0.3,1.6,0.2,2.5l-0.3,3.2h-1.2l0.1-2c-0.1-0.5-0.7-0.7-1-0.3l-1.1,1.3
	c-0.3,0.6-0.9,1-1.6,1.1c-2,0.3-6,0.4-6.2-0.9c-0.2-1.4,3.7-1.5,4.8-3s1.8-4.7,1.8-4.7C217.6,421.6,219,421.5,220.4,421z
	 M238.7,415.4l1.9,2.3c0.5,0.6,0.9,1.4,1.2,2.2l1.1,3l-1.1,0.5l-0.8-1.9c-0.3-0.5-1-0.4-1.1,0.2l-0.4,1.7c0,0.7-0.4,1.3-0.9,1.7
	c-1.7,1.1-5.3,2.9-6,1.8c-0.8-1.2,2.7-2.9,3-4.8c0.3-1.8-0.4-5-0.4-5C236.5,417,237.7,416.4,238.7,415.4L238.7,415.4z"/>
<path class="st23" d="M38.8,306.4c0,0,17.3,14.1,23.3,13c2.6-0.5,5.6-3.1,8.2-6.4c3.8-4.9,3.4-7.6,3.7-11.9c0.4-5.7-5-8-7.5-3
	c-3,5.9-3.6,6.3-5,9c-0.5,1-0.9,1.7-1.4,2.1c-2.4,1.8-18.3-6.4-18.3-6.4s-0.7-3.5-2.2-4.2c-2.2-1.1,0.3,3-0.7,3.2
	c-2,0.4-6.7-6.6-7.3-5C30,301.5,34.5,306,38.8,306.4L38.8,306.4z"/>
<path class="st24" d="M40.1,304.4l1.3-1.3c0.1-0.1,0.1-0.3,0-0.4l-8.5-8.5c-0.1-0.1-0.3-0.1-0.4,0l-1.3,1.3c-0.1,0.1-0.1,0.3,0,0.4
	l8.5,8.5C39.8,304.5,40,304.5,40.1,304.4z"/>
<path class="st25" d="M58.3,384.3c0.6,4,0.9,7.6,0.9,10.9c0,8.5-1.6,21.3-4,29.3l-4.2-0.9c0,0-3.8-22.7-5.4-34.2
	c-0.4-2.9-0.7-5.5-0.8-7.5c-0.6-11.2,9.1-41.6,9.7-43.6v-0.1l17.5-0.6C78.8,360.4,67.4,364.8,58.3,384.3L58.3,384.3z"/>
<path class="st26" d="M68.3,367.2c-3,4.8-6.7,9.9-10,17.1c0.6,3.7,1.3,7.5,2.1,11.9l-15.2,0.5c-0.4-2.9-0.4-12.8-0.5-14.8
	c-0.6-11.2,9.1-41.6,9.7-43.6v-0.1l17.5-0.6C76.3,352,73.3,359,68.3,367.2z"/>
<path class="st27" d="M69.2,367.5c-3.1,4.7-7,9.7-10.6,16.8c0.5,3.7,1.1,7.5,1.7,12h-2.8c0.1-4.3-2.7-11.8-4-11.8
	c1.2-0.1,14.1-18.8,15.8-25.6L69.2,367.5z"/>
<path class="st25" d="M64.7,428.4l13-9.7c0,0-5-13.5-9.4-22.8c-1-2.2-2.1-4.2-3-5.6c-6.5-10.6-1.2-55.4-1.2-55.4L78,338
	c8.7,12.4,2.9,25.6,0.2,39.3c-0.9,4.7-0.4,9.6,1.3,14.2c0.3,0.9,0.6,1.8,0.9,2.8c1.9,6.5,2.3,13.7,1.6,25.3l0.6,7.7L64.7,428.4z"/>
<path class="st28" d="M81.1,394.1l-4.4,1l-9,1.9c-1-2.2-1.5-5.2-2.4-6.7c-6.5-10.6-2.2-55.8-2.2-55.8l14.3,3.3l0.6,0.1
	c8.4,12,3.3,24.7,0.5,37.9c-1.1,5.4-0.5,11,1.8,16C80.6,392.6,80.9,393.3,81.1,394.1L81.1,394.1z"/>
<path class="st26" d="M81.1,394.1l-4.4,1c-0.9-2.3-2-6.6-2.4-9.5c-1.2-7.5,2.5-16.5,4.8-29.9c1.7-9.8-5.5-16.4-5.5-16.4l3.8-1.5
	l0.6,0.1c8.4,12,3.3,24.7,0.5,37.9c-1.1,5.4-0.5,11,1.8,16C80.6,392.6,80.9,393.3,81.1,394.1z"/>
<path class="st29" d="M82.7,307.8c-0.1,9-2.3,24.5-3.2,30.1c-0.1,0.8-0.6,1.5-1.2,2c-0.3,0.2-0.8,0.4-1.2,0.5c-4,0.6-8,0.9-11.8,0.9
	c-3.5,0-6.8-0.3-10.1-0.8c-1.3-0.2-2.3-1.3-2.4-2.5c-0.5-4.2,0.9-13.5,0.7-22.6c-0.1-5.7,1.7-20.4,12.3-22.7l6.3-0.1
	c7,1.8,10,7.2,10.4,10.9C82.7,304.6,82.8,306.1,82.7,307.8L82.7,307.8z"/>
<path class="st28" d="M50.3,419.8c-6.7,2.4-13.1,2.1-13.7,8l20.9-0.4c0.3-2.5-0.1-5.1-1.1-7.6H50.3z M77.9,418.9
	c-6.5,2.8-15.1,3.5-15.4,9.5h20.4c0.1-2.5,0.6-6.6-0.6-9L77.9,418.9z"/>
<path class="st24" d="M67.8,287.1c2,0.6,2.9,1.6,5.5,0.5c4-1.8,7.3-8.7,2-11.8c-0.4-1.1-0.7-1.5-2.1-1.8s-2.8,0.3-4.7,0.3
	s-4.6-2-6.3,0.8c-1.7,2.8,2.5,4.9,4.5,6.3C68.8,282.8,68.1,285.1,67.8,287.1z"/>
<path class="st20" d="M72.2,292.6c-2.3,2.3-4.4,2.7-6.3,0l0.5-4.4l0.2-1.8h5l0.1,1.1L72.2,292.6L72.2,292.6z"/>
<path class="st30" d="M71.8,288.4c-1.2,1.5-4.7,1.9-5.6,1.3l0.4-3.3l5.1-2.1L71.8,288.4z"/>
<path class="st20" d="M64,277.6c-0.9,2.6-1.8,8.4,0.4,10.5c1.4,1.4,6.5,0.8,7.5-2.9c1.2-0.9,2.1-3.1,1-4c-0.8-0.7-1.8,1.2-3.2,0.8
	c-0.5-0.1,1.1-3.7-0.6-4.3C67.5,277.1,65.7,278.4,64,277.6z M38,307.7c0,0,15.5,16,21.7,15.6c2.7-0.2,5.9-2.4,8.9-5.4
	c4.4-4.4,8.2-10.6,9-14.9c1.1-5.6-8-5.1-11.1-0.4c-3.6,5.5-4.3,5.8-6,8.4c-0.6,1-1.1,1.6-1.6,1.9c-2.6,1.5-17.5-8.4-17.5-8.4
	s-0.3-3.5-1.7-4.4c-2.1-1.3-0.1,3-1,3.1c-2.1,0.2-5.9-7.3-6.7-5.8C29.7,301.8,33.7,306.8,38,307.7L38,307.7z"/>
<path class="st31" d="M58.4,312l10.3,9.1c4.8-4.9,9.5-11,10.4-15.8c1.2-6.1-7.1-11.6-13.3-3.2C62.4,306.6,60.2,309.2,58.4,312z"/>
<path class="st22" d="M280.2,274.6c-0.1,0-0.1,0.2,0,0.2S280.3,274.6,280.2,274.6z"/>
<path class="st22" d="M314.9,241.2c-7.5-5.7-17.4-8.1-26.8-7.3c-6.1,0.5-12.2,2.3-17.1,5.9s-8.7,9-9.6,15.1s1.5,12.6,6.4,16.3
	c5.2,3.8,12.2,4,18.6,3.1c8.1-1.2,15.9-3.9,24-5c3.4-0.5,6.9-0.6,10,0.7c3.1,1.4,5.6,3,6.6,7.5C332,258.1,322.4,246.9,314.9,241.2z"
	/>
<path class="st22" d="M301.3,274.7c-0.8,0.2-1.5,0.6-2.2,0.8c-0.8,0.3-1.5,0.5-2.3,0.8c-1.5,0.5-3.1,1-4.6,1.4
	c-3.1,0.8-6.3,1.3-9.5,1.3c-5.6,0.1-11.3-1.2-16.2-4.1c-2.6-1.6-5.1-3.7-6.9-6.1c-0.1-0.1-0.3,0-0.2,0.1c1.5,2.3,3.4,4.3,5.6,5.9
	c2.3,1.7,4.8,3,7.5,3.9c6,2.1,12.5,2,18.6,0.7c1.8-0.4,3.6-0.9,5.4-1.6c0.9-0.3,1.7-0.7,2.6-1.1s1.8-0.7,2.6-1.3
	C302,275.2,301.8,274.6,301.3,274.7L301.3,274.7z M330.8,254.8c-0.7-3.1-2.2-6.1-4.1-8.6c-1-1.3-2.1-2.4-3.3-3.5
	c-0.6-0.5-1.2-0.9-1.8-1.4c-0.6-0.4-1.4-0.9-2.1-1.1c-0.2-0.1-0.3,0.2-0.2,0.3c0.5,0.5,1.2,0.9,1.8,1.3c0.6,0.5,1.3,1,1.9,1.5
	c1.1,1,2.1,2.2,3,3.4c1.8,2.5,3.1,5.3,3.8,8.3C329.8,255.9,330.9,255.6,330.8,254.8L330.8,254.8z M308.6,272.8
	c-0.3-0.2-0.8-0.1-1.2-0.1c-0.4,0-0.7,0.1-1.1,0.2c-0.3,0.1-0.7,0.2-1,0.4c-0.3,0.2-0.7,0.3-0.9,0.7c-0.2,0.3,0.1,0.7,0.4,0.7
	c0.1,0,0.2,0,0.4-0.1c0.1,0,0.1-0.1,0.2-0.1c0.1-0.1,0.2-0.1,0.3-0.1l0.9-0.3c0.1,0,0.3-0.1,0.5-0.1h1.5c0.2-0.1,0.3-0.2,0.4-0.4
	C308.9,273.1,308.8,272.8,308.6,272.8L308.6,272.8z"/>
<path class="st3" d="M276.3,254.4c0-1.3,1.1-2.4,2.4-2.4s2.4,1.1,2.4,2.4s-1.1,2.4-2.4,2.4S276.3,255.7,276.3,254.4z M285.1,254.4
	c0-1.3,1.1-2.4,2.4-2.4s2.4,1.1,2.4,2.4s-1.1,2.4-2.4,2.4C286.1,256.8,285.1,255.7,285.1,254.4z M293.8,254.4c0-1.3,1.1-2.4,2.4-2.4
	s2.4,1.1,2.4,2.4s-1.1,2.4-2.4,2.4S293.8,255.7,293.8,254.4z M302.6,254.4c0-1.3,1.1-2.4,2.4-2.4s2.4,1.1,2.4,2.4s-1.1,2.4-2.4,2.4
	S302.6,255.7,302.6,254.4z"/>
<path class="st22" d="M119.8,227.1c-9-15.8-42-14.1-45.1,6.7c-1.5,7.5,4.9,13.9,10.8,17.4c9.1,5.4,0.8,10.7-7.8,9.5
	C96.8,270.4,131.9,248.3,119.8,227.1z"/>
<path class="st3" d="M97.6,243.9c0-1.3,0.2-2.7,0.6-4.2s0.9-3.3,1.6-5.5l0.3-0.9c0.6-1.8,0.8-3.3,0.8-4.6c0-1.9-0.6-2.9-1.8-2.9
	c-0.8,0-1.1,0.5-1.1,1.4c0,0.2,0.1,0.8,0.4,1.7c0,0-0.1,0.1-0.3,0.2c-0.7,0.3-1.2,0.5-1.5,0.5c-1.1,0-1.7-0.7-1.7-2.1v-0.3
	c0-0.5,0.1-1,0.3-1.4c0.2-0.4,0.6-0.7,1.2-1c0.7-0.3,1.5-0.4,2.5-0.4c0.9,0,1.6,0.1,2.3,0.3c0.6,0.2,1.1,0.4,1.5,0.7
	c0.6,0.5,1,1.2,1.2,2.2c0,0.2,0.1,0.6,0.1,1.2c0,1.8-0.6,3.9-1.8,6c-0.5,0.9-1,2-1.3,3.4c-0.4,1.4-0.5,2.8-0.5,4.3
	c0,1.2,0,1.9,0.1,2.1c-0.7,0-1.1,0-1.2,0.1H99C98.2,244.6,97.7,244.3,97.6,243.9z M97.6,247.7c-0.4-0.2-0.7-0.5-0.7-0.8
	s0.2-0.6,0.7-0.8c0.5-0.3,1-0.4,1.6-0.4c0.5,0,1,0.1,1.4,0.4c0.5,0.3,0.7,0.5,0.7,0.8c0,0.8-0.8,1.2-2.4,1.2
	C98.4,248.1,97.9,248,97.6,247.7z"/>
<path class="st22" d="M127.7,234.7c0-1.1-0.2-2.1-0.4-3.2c-0.4-2.1-1.1-4.1-2.1-5.9c-1.9-3.5-4.9-6.4-8.4-8.3c-2-1-4.1-1.7-6.3-2
	c-0.2,0-0.3,0.4-0.1,0.4c3.6,1,7,2.6,9.8,5.3s4.8,6.2,5.6,10c0.2,1.1,0.4,2.2,0.5,3.3s-0.1,2.3-0.1,3.4c0,0.7,1,0.9,1.2,0.2
	C127.8,236.9,127.7,235.8,127.7,234.7z M126.9,241.9v-0.3c0-0.1-0.1-0.1-0.1-0.2s-0.2-0.2-0.3-0.1c0,0.1-0.1,0.1-0.2,0.2
	c0,0.1-0.1,0.1-0.1,0.2c-0.1,0.1-0.2,0.3-0.2,0.4c-0.2,0.3-0.3,0.6-0.4,1c0-0.1-0.1,0.1-0.1,0.1c0,0.1-0.1,0.1-0.1,0.2
	c-0.1,0.1-0.1,0.3-0.2,0.4c-0.1,0.1-0.2,0.3-0.3,0.4c0,0.1-0.1,0.1-0.1,0.2c-0.1,0.1-0.1,0.3-0.1,0.4c-0.1,0.5,0.6,0.7,0.9,0.5
	c0.3-0.2,0.5-0.7,0.7-1s0.3-0.7,0.4-1c0.1-0.3,0.2-0.7,0.2-1L126.9,241.9L126.9,241.9z M83,254c-0.5-0.3-1-0.4-1.5-0.6
	c-0.5-0.2-1-0.5-1.4-0.7c-0.9-0.5-1.7-1.2-2.5-1.9s-1.5-1.5-2.1-2.4s-1.2-1.8-1.6-2.8c-0.1-0.2-0.4-0.1-0.3,0.1
	c0.3,1.1,0.7,2.1,1.3,3.1c0.6,1,1.3,1.9,2.1,2.7c0.8,0.8,1.7,1.5,2.6,2.1c0.5,0.3,1,0.6,1.5,0.8s1.1,0.5,1.6,0.6
	C83.3,255,83.4,254.2,83,254L83,254z"/>
<path class="st32" d="M205.8,33.7l14.1,2.3l-3.6-7.6L205.8,33.7z"/>
<path class="st33" d="M218.5,38.2l19-3.5l-22.7-3.4L218.5,38.2z M237.5,34.6l-27-16.1l3.4,7L237.5,34.6z"/>
<path class="st1" d="M237.5,34.7l-22.8-3.4l-8.9,2.4l8.1-8.3L237.5,34.7z"/>
<path class="st34" d="M397.5,200.4c0.2,0.3,0.2,0.6,0.2,1c-0.1,0.5-0.4,0.8-0.9,0.9l-4.3,1.3c-0.4,0.1-0.9,0-1.2-0.3
	c-0.3-0.3-0.5-0.8-0.4-1.2l1.1-4.3c0.1-0.5,0.4-0.8,0.9-0.9c0.4-0.1,0.9,0,1.2,0.3l3.2,3.1C397.3,200.2,397.4,200.3,397.5,200.4
	L397.5,200.4z M391.8,202.5C391.9,202.5,391.9,202.5,391.8,202.5c0.1,0.1,0.2,0.2,0.3,0.1l4.3-1.3c0.1,0,0.2-0.2,0.2-0.2
	s0-0.2-0.1-0.3l-3.2-3.1c-0.1-0.1-0.2-0.1-0.3-0.1c0,0-0.2,0.1-0.2,0.2l-1.1,4.3C391.8,202.3,391.8,202.4,391.8,202.5L391.8,202.5z
	 M6.6,145.6c0.2,0.3,0.2,0.6,0.2,1c-0.1,0.5-0.4,0.8-0.9,0.9l-4.3,1.3c-0.4,0.1-0.9,0-1.2-0.3c-0.3-0.3-0.5-0.8-0.4-1.2l1.1-4.3
	c0.1-0.5,0.4-0.8,0.9-0.9c0.4-0.1,0.9,0,1.2,0.3l3.2,3.1C6.5,145.4,6.6,145.5,6.6,145.6L6.6,145.6z M1,147.6
	C1,147.7,1,147.7,1,147.6c0.1,0.1,0.2,0.2,0.3,0.1l4.3-1.3c0.1,0,0.2-0.2,0.2-0.2s0-0.2-0.1-0.3l-3.2-3.1c-0.1-0.1-0.2-0.1-0.3-0.1
	c0,0-0.2,0.1-0.2,0.2l-1.1,4.3C1,147.5,1,147.6,1,147.6L1,147.6z"/>
<path class="st35" d="M348,231.3l1.6-1.6c0.4-0.4,0.4-0.9,0-1.3s-0.9-0.4-1.3,0l-1.6,1.6l-1.6-1.6c-0.4-0.4-0.9-0.4-1.3,0
	s-0.4,0.9,0,1.3l1.6,1.6l-1.6,1.6c-0.4,0.4-0.4,0.9,0,1.3c0.2,0.2,0.4,0.3,0.6,0.3s0.5-0.1,0.6-0.3l1.6-1.6l1.6,1.6
	c0.2,0.2,0.4,0.3,0.6,0.3s0.5-0.1,0.6-0.3c0.4-0.4,0.4-0.9,0-1.3L348,231.3L348,231.3z M71,99l1.6-1.6c0.4-0.4,0.4-0.9,0-1.3
	s-0.9-0.4-1.3,0l-1.6,1.6l-1.6-1.6c-0.4-0.4-0.9-0.4-1.3,0s-0.4,0.9,0,1.3l1.6,1.6l-1.6,1.6c-0.4,0.4-0.4,0.9,0,1.3
	c0.2,0.2,0.4,0.3,0.6,0.3s0.5-0.1,0.6-0.3l1.6-1.6l1.6,1.6c0.2,0.2,0.4,0.3,0.6,0.3s0.5-0.1,0.6-0.3c0.4-0.4,0.4-0.9,0-1.3L71,99z"
	/>
<path class="st36" d="M364.1,165.6c-2,0-3.6-1.6-3.6-3.6s1.6-3.6,3.6-3.6s3.6,1.6,3.6,3.6S366.1,165.6,364.1,165.6z M364.1,159.5
	c-1.4,0-2.5,1.1-2.5,2.5s1.1,2.5,2.5,2.5s2.5-1.1,2.5-2.5S365.5,159.5,364.1,159.5z M51.8,231.8c-2,0-3.6-1.6-3.6-3.6
	s1.6-3.6,3.6-3.6s3.6,1.6,3.6,3.6C55.4,230.1,53.8,231.8,51.8,231.8z M51.8,225.7c-1.4,0-2.5,1.1-2.5,2.5s1.1,2.5,2.5,2.5
	s2.5-1.1,2.5-2.5S53.2,225.7,51.8,225.7z"/>
</svg>
